<svg id="Tryb_izolacji" data-name="Tryb izolacji" xmlns="http://www.w3.org/2000/svg" viewBox="0 0 60.72 48.34">
  <defs>
    <style>
      .cls-1 {
        fill: #2b2a29;
        fill-rule: evenodd;
        stroke-width: 0px;
      }
    </style>
  </defs>
  <path class="cls-1" d="m60.53,28.49c.3-1.15-1.23-1.91-2.24-1.99-.91-.07-6.54,2.47-10.63,2.1-1.88-.17-2.75-.87-4.26-1.43-2.53-.93-5.24-.11-7.6.12-1.85.18-2.45,0-3.66-1.2-.98-.99-2.5-3.22-3.33-4.47l-.56-.86c-.28-.35-.35-.49-.71-.75-1.45-1.03-4.08-.8-5.46.34-.5.41-1.09.85-1.51,1.33-2.19,1.9-3.93,3.42-6.66,4.75-1.27.62-2.56,1.27-4.04,1.68-2.27.63-4.11.64-6.44.6-1.75-.03-2.65,1.65-1.98,3.29,3.72,9.05,13.5,14.26,22.69,15.79,11.94,1.99,25.6-1.61,33.05-11.57,1.46-1.95,2.56-4.31,3.21-6.74.23-.86.01-.57.13-1.02h0Z"/>
  <path class="cls-1" d="m24.84,13.37c.81-.13,1.6.42,2.08.99.45.52.86,1.18,1.27,1.81.82,1.27,1.67,2.42,2.52,3.65.58.83,1.6,2.37,2.26,3.15l.36.4c.61.64,1.08.86,2.29.66.89-.15,1.77-.28,2.68-.4,1.99-.25,3.7-.26,5.53.33.81.26,1.44.6,2.18.91,3,1.26,7.28-.35,10.24-1.21,1.14-.33,1.5-.34,2.52-.57.23-.05.06-.06.25-.16,1.89-.99,1.94-1.51,1.38-3.77C57.1,5.87,41.96-.27,29.41,0,17.4.28,3.09,6.9.39,19.65c-.13.61-.46,2.86-.38,3.52.32,2.88,3.87,2.48,6.08,2.33,1.97-.13,3.39-.48,5.03-1.15,3.78-1.54,5.69-3.22,8.51-5.77l3.13-3.42c.11-.14.21-.29.32-.45.16-.22.53-.7.71-.85.31-.25.52-.41,1.04-.49h0Z"/>
</svg>