<svg id="Tryb_izolacji" data-name="Tryb izolacji" xmlns="http://www.w3.org/2000/svg" viewBox="0 0 62.3 49.92">
  <defs>
    <style>
      .cls-1 {
        fill: #2b2a29;
        stroke-width: 0px;
      }
    </style>
  </defs>
  <path class="cls-1" d="m59.02,28.07l.12-1.58h.13s.13.03.13.03l.13.02.13.03.13.03.13.04.13.04.13.04.13.05.13.05.13.06.13.06.12.07.12.07.12.08.12.08.12.09.11.09.11.1.1.11.1.11.09.12.08.13.08.14.07.15.05.16.04.16.03.17v.17s0,.18,0,.18l-.02.18-.04.18-1.53-.4v-.04s.01-.03.01-.03v-.03s0-.03,0-.03v-.02s-.01-.03-.01-.03v-.03s-.02-.03-.02-.03l-.02-.04-.02-.04-.03-.04-.04-.04-.04-.04-.05-.04-.05-.04-.06-.04-.06-.04-.07-.04-.07-.04-.07-.04-.08-.04-.08-.04-.08-.03-.08-.03-.08-.03-.08-.02-.08-.02-.08-.02-.08-.02h-.07s-.07-.02-.07-.02h-.07s0,0,0,0h0Zm0,0c-.44-.03-.76-.41-.73-.85s.41-.76.85-.73l-.12,1.58h0Zm-10.65,2.1l.14-1.57h0l.35.02h.36s.37,0,.37,0l.38-.02.39-.03.4-.04.4-.05.4-.06.4-.07.4-.08.4-.09.4-.09.4-.1.39-.1.39-.1.38-.11.37-.11.36-.11.35-.11.34-.1.64-.2.58-.18.27-.08.25-.07.23-.07.22-.06.2-.05.19-.04.19-.02h.22s-.12,1.58-.12,1.58h.02s-.06,0-.06,0l-.11.02-.15.03-.18.05-.21.06-.23.07-.25.08-.57.18-.64.2-.35.11-.36.11-.37.11-.38.11-.39.11-.4.11-.41.11-.42.1-.42.1-.43.09-.43.08-.43.08-.44.07-.44.06-.44.05-.44.03-.43.02h-.43s-.43,0-.43,0l-.42-.03h0,0Zm0,0c-.43-.04-.76-.42-.72-.86s.42-.76.86-.72l-.14,1.57h0Zm-4.46-1.47l.55-1.48h0l.15.06.15.06.14.06.14.06.13.06.13.06.13.06.13.06.24.11.24.11.11.05.11.05.11.05.11.05.11.05.11.04.11.04.11.04.11.04.12.04.12.04.12.03.12.03.13.03.13.03.14.03.14.02.15.02.15.02.16.02-.14,1.57-.19-.02-.18-.02-.18-.03-.17-.03-.17-.03-.16-.03-.16-.04-.16-.04-.15-.04-.15-.04-.15-.05-.14-.05-.14-.05-.13-.05-.13-.05-.13-.05-.13-.05-.12-.05-.12-.05-.12-.06-.24-.11-.24-.11-.12-.05-.12-.05-.12-.05-.12-.05-.12-.05-.12-.05-.13-.05-.13-.05h0Zm0,0c-.41-.15-.62-.61-.47-1.02.15-.41.61-.62,1.02-.47l-.55,1.48Zm-7.25.17l-.15-1.57h0l.21-.02.22-.03.22-.03.22-.03.23-.03.23-.03.23-.03.23-.04.24-.04.24-.04.24-.03.24-.03.25-.03.25-.03.25-.03.25-.02.25-.02.26-.02h.26s.26-.02.26-.02h.26s.26,0,.26,0h.26s.26.03.26.03l.27.02.27.03.27.04.27.05.27.06.27.07.27.08.27.09-.55,1.48-.21-.07-.21-.06-.21-.06-.21-.05-.21-.04-.22-.03-.22-.03-.22-.02h-.22s-.22-.02-.22-.02h-.22s-.23,0-.23,0h-.23s-.23.02-.23.02l-.23.02-.23.02-.23.02-.23.03-.23.03-.23.03-.23.03-.23.03-.23.03-.23.04-.23.04-.23.04-.23.03-.23.03-.23.03-.23.03-.23.03-.23.02h0Zm0,0c-.43.04-.82-.28-.86-.71-.04-.43.28-.82.71-.86l.15,1.57h0Zm-4.29-1.43l1.12-1.12h0s.1.1.1.1l.1.1.1.09.09.08.09.08.08.07.08.06.08.06.07.05.07.05.07.04.07.04.07.03.07.03.07.03.07.02.07.02.07.02.08.02h.08s.08.03.08.03h.09s.1.02.1.02h.1s.11,0,.11,0h.12s.12,0,.12,0h.13s.14-.01.14-.01h.15s.16-.02.16-.02l.16-.02.15,1.57-.18.02h-.17s-.17.03-.17.03h-.16s-.16.02-.16.02h-.15s-.15,0-.15,0h-.15s-.14,0-.14,0h-.14s-.14-.02-.14-.02l-.14-.02-.14-.02-.14-.03-.13-.03-.13-.04-.13-.05-.13-.05-.13-.06-.12-.06-.12-.07-.12-.07-.12-.08-.12-.08-.11-.09-.11-.09-.11-.09-.11-.1-.11-.1-.11-.11-.12-.11-.12-.12h0s0,0,0,0Zm0,0c-.31-.31-.31-.81,0-1.12s.81-.31,1.12,0l-1.12,1.12h0Zm-3.44-4.59l1.32-.87h0s.08.11.08.11l.08.12.09.13.09.13.09.14.1.14.1.14.1.15.1.15.11.15.11.15.11.15.11.15.11.16.11.16.11.15.11.15.11.15.11.15.11.15.11.15.11.14.11.14.11.13.11.13.1.13.1.12.1.11.09.11.09.1.09.09.08.08-1.12,1.12-.11-.11-.11-.11-.11-.12-.11-.12-.11-.13-.11-.13-.11-.14-.11-.14-.11-.14-.12-.15-.12-.15-.12-.15-.12-.16-.12-.16-.12-.16-.12-.16-.12-.16-.11-.16-.11-.16-.11-.16-.11-.16-.11-.16-.11-.15-.11-.15-.1-.15-.1-.15-.1-.14-.09-.14-.09-.14-.09-.13-.08-.13-.08-.12h0s0,0,0,0Zm0,0c-.24-.36-.14-.85.22-1.1.36-.24.85-.14,1.1.22l-1.32.88h0Zm.76-1.73l.56.86-1.32.87-.56-.86,1.28-.93.05.06h0Zm-1.32.87c-.24-.37-.14-.86.23-1.09s.86-.14,1.09.23l-1.32.87h0Zm-.51-.53l.92-1.29h0s.04.03.04.03l.04.03.03.03.04.03.04.03.04.03.03.03.03.03.03.03.03.03.03.03.03.03.03.03.03.03.03.03.03.03.02.03.02.03.02.03.02.03.04.05.04.05.04.05.04.05.02.03.02.03.02.03.02.03-1.23.99-.03-.03-.03-.03-.02-.03-.03-.03-.04-.06-.04-.05-.04-.04-.03-.04h-.01s-.01-.03-.01-.03v-.02s-.03-.01-.03-.01h-.01s-.01-.02-.01-.02h-.01s-.01-.02-.01-.02h-.01s-.01-.02-.01-.02h-.01s-.01-.02-.01-.02h-.02s-.02-.03-.02-.03h-.02s-.02-.03-.02-.03l-.02-.02-.02-.02-.02-.02-.02-.02h0s0,0,0,0Zm0,0c-.36-.25-.44-.75-.19-1.1.25-.36.75-.44,1.1-.19l-.92,1.29h0Zm-4.5.31l-1.01-1.22h0s.17-.13.17-.13l.17-.12.18-.11.18-.11.19-.1.19-.09.2-.08.2-.08.2-.07.21-.06.21-.05.21-.05.21-.04.21-.03.21-.03.22-.02h.22s.22-.02.22-.02h.22s.22.01.22.01l.21.02.21.03.21.03.21.04.21.05.2.06.2.07.2.08.19.09.19.1.18.11.18.12-.92,1.29-.1-.07-.11-.06-.11-.06-.12-.05-.13-.05-.13-.05-.14-.04-.14-.04-.15-.03-.15-.02-.15-.02h-.16s-.16-.02-.16-.02h-.16s-.16,0-.16,0h-.16s-.16.02-.16.02l-.16.02-.16.02-.16.03-.16.04-.16.04-.15.05-.15.05-.15.06-.14.06-.13.06-.13.07-.12.07-.12.07-.11.08-.1.08h0s0,0,0,0Zm0,0c-.34.28-.84.23-1.11-.11-.28-.34-.23-.84.11-1.11l1.01,1.22Zm-1.49,1.32l-1.04-1.19-.08.08.05-.05.05-.05.05-.05.05-.05.05-.05.05-.05.05-.05.05-.05.05-.05.05-.05.05-.05.05-.05.05-.05.05-.05.05-.04.05-.04.05-.04.05-.04.05-.04.05-.04.1-.08.1-.08.1-.08.1-.08.05-.04.05-.04.05-.04.04-.04,1.01,1.22-.05.04-.05.04-.05.04-.05.04-.1.08-.1.08-.1.08-.1.08-.05.04-.05.04-.05.04-.05.04-.05.04-.05.04-.04.04-.04.04-.04.04-.04.04-.04.04-.04.04-.04.04-.04.04-.04.04-.04.04-.04.04-.03.04-.03.04-.03.04-.08.08h0Zm.08-.08c-.29.33-.79.37-1.12.08s-.37-.79-.08-1.12l1.2,1.04h0Zm-6.91,4.94l-.69-1.42h0s.24-.12.24-.12l.24-.12.23-.12.23-.12.22-.12.22-.13.21-.13.21-.13.21-.13.2-.13.2-.13.2-.14.2-.14.19-.14.19-.14.19-.14.19-.14.19-.15.19-.15.19-.15.19-.15.19-.15.19-.16.19-.16.19-.16.19-.16.19-.16.19-.17.2-.17.2-.17.2-.17.2-.18,1.04,1.19-.2.18-.2.18-.2.17-.2.17-.2.17-.2.17-.2.17-.2.16-.2.16-.2.16-.2.16-.2.16-.2.16-.2.16-.2.15-.2.15-.2.15-.21.15-.21.15-.21.15-.21.14-.22.14-.22.14-.22.14-.23.14-.23.14-.24.14-.24.14-.25.13-.25.13-.26.13-.26.13h0s0,0,0,0Zm0,0c-.39.19-.87.03-1.06-.36-.19-.39-.03-.87.36-1.06l.69,1.42h0Zm-4.17,1.73l-.43-1.52h0s.13-.04.13-.04l.13-.04.13-.04.13-.04.13-.04.13-.04.12-.04.12-.05.12-.05.12-.05.12-.05.12-.05.12-.05.12-.05.12-.05.12-.05.12-.05.12-.05.12-.05.12-.06.12-.05.12-.06.12-.06.12-.06.12-.06.12-.06.12-.06.12-.06.24-.12.24-.12.69,1.42-.24.12-.24.12-.12.06-.12.06-.12.06-.12.06-.12.06-.12.06-.12.06-.13.06-.12.06-.13.06-.13.06-.13.06-.13.06-.13.06-.13.05-.13.05-.13.05-.13.05-.14.05-.14.05-.14.05-.14.05-.14.05-.14.05-.14.05-.14.04-.15.04-.15.04h0s0,0,0,0Zm0,0c-.42.12-.86-.13-.97-.55-.12-.42.13-.86.55-.97l.42,1.52h0Zm-6.66.63l.03-1.58h0,.22s.21,0,.21,0h.21s.21,0,.21,0h.2s.2,0,.2,0h.2s.2,0,.2,0h.2s.19,0,.19,0h.19s.19-.01.19-.01h.19s.19-.02.19-.02h.19s.19-.02.19-.02h.19s.19-.03.19-.03l.18-.02.19-.02.19-.02.19-.03.19-.03.19-.03.19-.03.19-.04.19-.04.19-.04.19-.05.2-.05.2-.05.2-.05.43,1.52-.22.06-.22.06-.22.05-.21.05-.21.05-.21.04-.21.04-.21.04-.21.03-.21.03-.21.03-.2.03-.2.02-.2.02-.2.02-.2.02h-.2s-.2.03-.2.03h-.2s-.2.02-.2.02h-.2s-.2.01-.2.01h-.2s-.2,0-.2,0h-.21s-.21,0-.21,0h-.21s-.21,0-.21,0h-.21s-.21,0-.21,0h-.22s-.22,0-.22,0h0Zm0,0c-.44,0-.78-.37-.78-.8,0-.44.37-.78.8-.78l-.03,1.58h0Zm-1.23,2.2l-1.46.6h0l-.07-.19-.06-.19-.05-.19-.04-.19-.03-.19-.02-.19v-.19s0-.19,0-.19v-.19s.04-.19.04-.19l.04-.18.05-.18.06-.18.07-.17.08-.17.09-.16.1-.16.11-.15.12-.14.13-.14.14-.13.15-.12.16-.11.16-.1.17-.09.18-.08.18-.07.19-.05.2-.04.2-.03.21-.02h.21s-.03,1.58-.03,1.58h-.11s-.11,0-.11,0h-.1s-.09.03-.09.03l-.09.03-.08.03-.08.03-.07.04-.07.04-.07.05-.06.05-.06.06-.06.06-.05.06-.05.07-.04.07-.04.07-.04.08-.03.08-.03.09-.02.09-.02.09v.1s-.02.1-.02.1v.1s0,.1,0,.1v.11s.03.11.03.11l.02.11.03.11.04.11.04.12h0Zm0,0c.17.4-.03.87-.43,1.03-.4.17-.87-.03-1.03-.43l1.46-.6h0Zm22.09,15.31l-.26,1.56h0l-.88-.16-.88-.18-.88-.2-.88-.22-.88-.25-.88-.27-.88-.29-.87-.31-.87-.33-.86-.36-.85-.38-.84-.4-.83-.43-.82-.45-.8-.47-.79-.49-.77-.52-.76-.54-.74-.56-.72-.59-.7-.61-.67-.63-.65-.66-.63-.68-.6-.7-.57-.73-.54-.75-.51-.78-.48-.8-.45-.82-.42-.85-.38-.87,1.46-.6.35.8.39.78.42.76.45.74.48.72.51.7.53.68.56.66.59.64.61.62.63.59.66.57.68.55.7.53.72.51.73.49.75.47.76.45.78.43.79.41.8.38.81.36.82.34.83.32.84.3.84.28.84.26.85.24.85.21.85.19.85.17.84.15h0Zm0,0c.43.07.72.48.65.91-.07.43-.48.72-.91.65l.26-1.56h0Zm32.28-11.26l1.27.95h0l-.74.94-.77.9-.81.87-.84.83-.87.79-.9.75-.93.71-.96.68-.98.64-1,.6-1.03.56-1.05.53-1.06.49-1.08.45-1.1.42-1.11.38-1.13.35-1.14.31-1.15.27-1.16.24-1.16.2-1.17.17-1.17.13-1.18.1-1.18.06-1.18.03h-1.18s-1.17-.04-1.17-.04l-1.17-.07-1.16-.11-1.16-.14-1.15-.17.26-1.56,1.1.17,1.11.13,1.12.1,1.12.07,1.13.04h1.13s1.13-.02,1.13-.02l1.13-.06,1.13-.09,1.13-.13,1.12-.16,1.12-.2,1.11-.23,1.1-.26,1.09-.3,1.08-.33,1.06-.36,1.05-.4,1.03-.43,1.01-.47,1-.5.98-.54.95-.57.93-.61.91-.64.88-.68.85-.71.82-.75.79-.78.76-.82.73-.85.69-.89h0Zm0,0c.26-.35.76-.42,1.11-.16.35.26.42.76.16,1.11l-1.27-.95h0Zm3.08-6.47l1.53.41h0s-.06.24-.06.24l-.07.24-.07.23-.07.23-.08.23-.08.23-.08.23-.08.23-.09.23-.09.23-.09.23-.09.23-.1.23-.1.22-.1.22-.1.22-.11.22-.11.22-.11.22-.11.22-.12.21-.12.21-.12.21-.12.21-.13.21-.13.21-.13.2-.13.2-.14.2-.14.2-.14.2-.14.19-1.27-.95.13-.18.13-.18.13-.18.12-.18.12-.18.12-.19.12-.19.12-.19.11-.19.11-.19.11-.2.11-.2.1-.2.1-.2.1-.2.1-.2.1-.2.09-.21.09-.21.09-.21.09-.21.08-.21.08-.21.08-.21.08-.21.07-.22.07-.22.07-.22.07-.22.07-.22.06-.22.06-.22h0s0,0,0,0Zm0,0c.11-.42.55-.67.97-.56.42.11.67.55.56.97l-1.53-.41h0Zm.13-1.02l1.53.4h0s0,.02,0,.02v.02s0,.01,0,.01h0s0,0,0,0h0s0-.02,0-.02h0v-.04s0,0,0,0h0s0,.02,0,.02v.05s.01.05.01.05v.05s0,.05,0,.05v.05s0,.05,0,.05v.05s0,.05,0,.05v.05s-.02.06-.02.06v.06s-.02.06-.02.06v.07s-.03.07-.03.07l-.02.07-.02.08-.02.08-1.53-.41.02-.07.02-.06v-.05s.02-.05.02-.05v-.04s.02-.04.02-.04v-.03s0-.02,0-.02v-.02s0,0,0,0h0s0,0,0,0h0s0,.01,0,.01h0s0,.02,0,.02v-.02s0-.03,0-.03v-.04s0-.04,0-.04v-.05s0-.04,0-.04v-.05s0-.06,0-.06v-.06s.01-.05.01-.05v-.05s.02-.05.02-.05v-.05s.03-.06.03-.06h0s0,0,0,0Zm0,0c.11-.42.54-.68.96-.57.42.11.68.54.57.96l-1.53-.4h0Z"/>
  <path class="cls-1" d="m28.32,14.63l-1.2,1.03h0s-.04-.04-.04-.04l-.04-.04-.04-.04-.04-.04-.04-.04-.04-.04-.04-.04-.04-.04-.04-.04-.04-.03-.05-.03-.05-.03-.05-.03-.05-.03-.05-.03-.05-.03-.05-.02-.05-.02-.05-.02-.04-.02-.04-.02h-.04s-.04-.03-.04-.03h-.04s-.04-.02-.04-.02h-.04s-.04,0-.04,0h-.04s-.04,0-.04,0h-.04s-.04,0-.04,0h-.04s-.26-1.56-.26-1.56l.12-.02h.12s.11-.01.11-.01h.11s.11,0,.11,0h.11s.11.03.11.03l.11.02.1.02.1.03.1.03.1.03.1.04.09.04.09.04.09.05.09.05.08.05.08.05.08.05.08.05.08.06.08.06.07.06.07.06.07.06.07.06.06.06.06.06.06.06.06.06.06.06h0s0,0,0,0Zm0,0c.28.33.25.83-.08,1.11-.33.28-.83.25-1.11-.08l1.2-1.03h0Zm1.34,1.9l-1.33.86h0s-.08-.12-.08-.12l-.08-.12-.08-.12-.08-.12-.04-.06-.04-.06-.04-.06-.04-.06-.04-.06-.04-.06-.04-.06-.04-.05-.04-.06-.04-.05-.04-.05-.04-.05-.04-.05-.04-.05-.04-.05-.04-.05-.04-.05-.04-.05-.04-.05-.04-.05-.04-.05-.04-.05-.04-.04-.04-.04,1.2-1.03.05.06.05.05.05.06.05.06.05.06.04.06.04.06.04.06.04.06.04.06.04.06.04.06.04.06.04.06.04.06.04.06.04.06.04.06.04.06.04.06.04.06.04.06.04.06.04.06.08.12.08.12.08.12.08.12h0s0,0,0,0Zm0,0c.24.37.13.86-.23,1.09s-.86.13-1.09-.23l1.33-.86Zm2.51,3.62l-1.3.9h0s-.08-.11-.08-.11l-.08-.11-.08-.11-.08-.11-.16-.23-.16-.22-.16-.22-.16-.22-.16-.23-.16-.23-.08-.11-.08-.11-.08-.11-.08-.11-.08-.11-.08-.11-.08-.12-.08-.12-.08-.12-.08-.12-.08-.12-.08-.12-.08-.12-.08-.12-.08-.12-.08-.12,1.33-.86.08.12.08.12.08.11.08.12.08.11.08.11.08.11.08.11.08.11.08.11.08.11.08.11.08.11.08.11.08.11.08.11.16.22.16.22.16.22.16.23.16.23.16.23.08.11.08.11.08.12.08.12h0s0,0,0,0Zm0,0c.25.36.16.85-.2,1.1s-.85.16-1.1-.2l1.3-.9h0Zm2.19,3.07l-1.17,1.06-.02-.02-.07-.08-.07-.09-.07-.09-.07-.09-.07-.09-.07-.1-.07-.1-.08-.1-.08-.1-.08-.11-.08-.11-.08-.11-.08-.11-.08-.11-.08-.11-.08-.11-.08-.11-.08-.11-.08-.11-.08-.11-.15-.22-.14-.21-.14-.2-.13-.19-.06-.09-.06-.09-.06-.08-.05-.08,1.3-.9.06.08.06.09.06.09.06.09.13.19.14.2.14.21.15.21.07.11.07.11.08.11.08.11.08.11.08.11.08.11.08.11.07.1.07.1.07.1.07.1.07.1.07.09.07.09.07.09.06.08.06.08.06.07.06.07-.02-.02h0Zm.02.02c.28.33.24.83-.09,1.11-.33.28-.83.24-1.11-.09l1.21-1.02Zm-.83,1.44l-.36-.4,1.17-1.06.36.4-1.16,1.07h-.01s0-.01,0-.01Zm1.17-1.06c.29.32.27.82-.06,1.12s-.82.27-1.12-.06l1.17-1.06h0Zm1.57.41l.26,1.56h0s-.12.02-.12.02l-.12.02h-.12s-.12.03-.12.03h-.11s-.11.02-.11.02h-.11s-.11,0-.11,0h-.11s-.11,0-.11,0h-.1s-.1-.02-.1-.02l-.1-.02-.1-.02-.1-.02-.1-.03-.1-.03-.09-.04-.09-.04-.09-.04-.09-.05-.08-.05-.08-.05-.08-.05-.08-.06-.07-.06-.07-.06-.07-.06-.07-.06-.07-.06-.07-.07-.06-.07,1.15-1.08.05.05.05.05.04.04.04.04.04.04.04.03.04.03.04.03.03.02.03.02.03.02.03.02h.03s.03.03.03.03h.03s.03.02.03.02h.03s.04.02.04.02h.04s.04.02.04.02h.05s.05.01.05.01h.05s.06,0,.06,0h.06s.07,0,.07,0h.07s.08-.01.08-.01h.08s.09-.02.09-.02h.09s.1-.03.1-.03h0s0,0,0,0Zm0,0c.43-.07.84.22.91.65s-.22.84-.65.91l-.26-1.56h0Zm2.72-.4l.19,1.57h0-.08s-.08.02-.08.02h-.08s-.08.02-.08.02h-.08s-.08.02-.08.02h-.08s-.08.02-.08.02l-.17.02-.17.02-.17.02-.17.02-.17.03-.17.03-.16.03-.17.03-.17.03-.17.03-.17.03-.17.03-.26-1.56.17-.03.17-.03.17-.03.17-.03.17-.03.17-.03.17-.03.17-.03.17-.02.17-.02.17-.02.17-.02h.08s.09-.02.09-.02h.09s.09-.02.09-.02h.09s.09-.02.09-.02h.09s.09-.02.09-.02h0Zm0,0c.43-.05.83.25.88.69s-.25.83-.69.88l-.2-1.57Zm5.87.36l-.48,1.51h0l-.16-.05-.16-.05-.16-.04-.16-.04-.16-.04-.16-.03-.16-.03-.15-.03-.15-.03-.16-.02-.16-.02-.16-.02-.16-.02h-.16s-.16-.02-.16-.02h-.16s-.16-.01-.16-.01h-.16s-.16,0-.16,0h-.16s-.16,0-.16,0h-.16s-.16.01-.16.01h-.17s-.17.02-.17.02h-.17s-.17.03-.17.03l-.17.02-.18.02-.18.02-.18.02-.18.02-.19-1.57.19-.02.19-.02.19-.02.19-.02.19-.02.19-.02h.19s.18-.02.18-.02h.18s.18-.02.18-.02h.18s.18,0,.18,0h.18s.18,0,.18,0h.18s.18.01.18.01h.18s.18.02.18.02h.18s.18.03.18.03l.18.02.18.02.18.03.18.03.18.03.18.04.18.04.18.04.18.05.18.05.18.05.18.06h0Zm0,0c.42.13.65.58.51.99-.13.42-.58.65-.99.51l.48-1.51Zm2.24.93l-.61,1.46h0l-.07-.03-.07-.03-.07-.03-.07-.03-.07-.03-.07-.03-.07-.03-.07-.03-.13-.06-.13-.06-.06-.03-.06-.03-.06-.03-.06-.03-.06-.03-.06-.03-.06-.03-.06-.03-.06-.03-.06-.03-.06-.03-.06-.03-.06-.02-.07-.03-.06-.02-.06-.02-.07-.02-.07-.02-.07-.02-.07-.02.48-1.51.08.03.08.03.08.03.08.03.08.03.08.03.07.03.07.03.07.03.07.03.07.03.07.03.07.03.07.03.07.03.07.03.07.03.07.03.07.03.07.03.13.06.13.06.06.03.06.03.07.03.06.03.06.03.06.03.06.03.07.03h0Zm0,0c.4.17.59.63.42,1.03s-.63.59-1.03.42l.61-1.46h0Zm9.71-1.24l.44,1.52h0s-.28.08-.28.08l-.29.09-.29.09-.3.09-.31.09-.31.1-.32.1-.33.1-.33.1-.34.09-.34.09-.34.09-.35.09-.35.08-.35.08-.35.07-.35.07-.36.06-.36.05-.36.04-.36.03-.36.02h-.36s-.35.01-.35.01h-.35s-.35-.04-.35-.04l-.35-.04-.35-.06-.34-.07-.34-.09-.33-.11-.33-.13.61-1.46.24.09.25.08.26.07.27.06.27.04.28.03.29.02h.3s.3,0,.3,0h.31s.31-.03.31-.03l.32-.03.32-.04.32-.05.32-.05.33-.06.33-.07.33-.07.33-.08.33-.08.33-.09.33-.09.32-.09.32-.09.32-.09.32-.09.31-.09.31-.09.3-.09.3-.09.29-.09.29-.08h0Zm0,0c.42-.12.86.12.98.54s-.12.86-.54.98l-.44-1.52h0Zm2.56-.58l.35,1.54h0l-.1.02-.09.02-.09.02-.09.02-.08.02-.08.02-.08.02-.08.02-.14.03-.14.03-.13.03-.13.03h-.06s-.06.03-.06.03h-.07s-.07.03-.07.03l-.07.02-.07.02-.07.02-.07.02-.07.02-.08.02-.08.02-.08.02-.09.02-.09.03-.1.03-.1.03-.44-1.52.11-.03.1-.03.1-.03.1-.03.09-.02.09-.02.09-.02.09-.02.08-.02.08-.02.08-.02.08-.02.07-.02h.07s.07-.03.07-.03h.07s.14-.04.14-.04l.14-.03.14-.03.14-.03h.07s.07-.03.07-.03l.07-.02.08-.02.08-.02.08-.02.09-.02.09-.02h0,0Zm0,0c.43-.1.85.17.95.6.1.43-.17.85-.6.95l-.35-1.54h0Zm.06-.09l.73,1.4h0,0s0,0,0,0h.01s.01-.02.01-.02l.02-.02.03-.02.02-.02.03-.03.03-.03.03-.04.03-.04.02-.05v-.03s0,.01,0,.01l-.03.06-.02.04-.04.06-.07.08-.04.04-.06.05-.08.05-.06.03-.04.02-.04.02-.04.02h-.03s-.03.02-.03.02h-.03s-.03.02-.03.02h-.03s-.35-1.54-.35-1.54h0s0,0,0,0h0s0,0,0,0h-.02s-.02.02-.02.02h-.03s-.04.03-.04.03l-.07.04-.05.04-.04.04-.06.07-.04.06-.02.03-.03.06h0s.02-.05.02-.05l.03-.06.03-.05.04-.05.04-.04.04-.04.03-.03.05-.04.04-.03.04-.02.04-.02.04-.02.04-.02h0,0Zm0,0c.39-.2.86-.05,1.07.33.2.39.05.86-.33,1.07l-.73-1.4h0Zm.98-2.88l1.53-.38h0l.05.21.05.2.05.2.04.19.04.18.03.18.03.17.02.17.02.17v.16s.01.16.01.16v.16s-.02.16-.02.16l-.02.16-.03.16-.05.16-.06.15-.07.15-.08.14-.09.14-.1.13-.11.12-.12.12-.12.11-.13.11-.14.1-.14.1-.15.1-.16.1-.17.1-.17.1-.18.1-.73-1.4.16-.09.15-.08.14-.08.12-.08.11-.07.1-.07.09-.06.08-.06.06-.06.05-.05.04-.05.03-.04.03-.04.02-.04.02-.04.02-.04v-.05s.03-.05.03-.05v-.06s.01-.07.01-.07v-.08s0-.09,0-.09v-.1s-.02-.11-.02-.11l-.02-.12-.02-.13-.03-.15-.03-.16-.04-.17-.04-.18-.05-.19-.05-.2h0Zm0,0c-.11-.42.15-.85.58-.96.42-.11.85.15.96.58l-1.53.38h0ZM30.22,1.59l-.04-1.58h1.21s1.22.02,1.22.02l1.23.07,1.24.11,1.24.15,1.24.19,1.24.23,1.24.26,1.23.3,1.23.34,1.22.38,1.2.42,1.19.46,1.17.51,1.15.55,1.12.59,1.09.63,1.06.67,1.03.71,1,.75.96.8.92.84.88.88.83.92.78.97.73,1.01.68,1.05.62,1.1.56,1.14.49,1.18.43,1.23.36,1.27-1.53.38-.33-1.18-.4-1.14-.46-1.1-.52-1.06-.57-1.02-.63-.98-.68-.94-.73-.9-.78-.86-.82-.83-.86-.79-.9-.75-.94-.71-.98-.67-1.01-.64-1.04-.6-1.07-.56-1.09-.52-1.11-.48-1.13-.44-1.15-.41-1.17-.37-1.18-.33-1.19-.29-1.19-.25-1.2-.22-1.2-.18-1.19-.14-1.19-.1-1.18-.07-1.17-.03h-1.16s0,0,0,0Zm0,0c-.44,0-.8-.34-.81-.77,0-.44.34-.8.77-.81l.04,1.58h0ZM1.96,20.6l-1.55-.33H.41s.3-1.22.3-1.22l.37-1.19.43-1.15.49-1.11.55-1.07.61-1.04.66-1,.72-.96.77-.92.81-.88.85-.84.89-.8.93-.77.97-.73,1-.69,1.03-.65,1.05-.61,1.08-.57,1.1-.54,1.12-.5,1.14-.46,1.15-.42,1.16-.38,1.17-.35,1.18-.31,1.18-.27,1.19-.23,1.18-.2,1.18-.16,1.18-.12,1.17-.08,1.16-.04.04,1.58-1.11.04-1.12.08-1.13.12-1.13.15-1.14.19-1.14.22-1.14.26-1.13.3-1.12.33-1.11.37-1.1.4-1.09.44-1.07.48-1.05.51-1.03.55-1,.58-.98.62-.95.65-.91.69-.88.72-.84.76-.8.79-.76.82-.71.86-.67.89-.62.92-.57.96-.51.99-.46,1.03-.4,1.06-.34,1.1-.27,1.13h0s0,0,0,0Zm0,0c-.09.43-.51.7-.94.61s-.7-.51-.61-.94l1.55.33h0Zm-.37,3.27l-1.57.18H.02s0-.1,0-.1v-.1s0-.1,0-.1v-.11s0-.11,0-.11v-.12s.01-.12.01-.12v-.12s.02-.13.02-.13v-.13s.02-.13.02-.13v-.13s.03-.14.03-.14l.02-.14.02-.14.02-.14.02-.14.02-.14.02-.14.02-.13.02-.13.02-.13.02-.12.02-.12.02-.12.02-.11.02-.11.02-.1.02-.09.02-.09.02-.08v-.07s1.56.33,1.56.33v.05s-.02.06-.02.06v.07s-.03.08-.03.08l-.02.09-.02.1-.02.1-.02.11-.02.11-.02.12-.02.12-.02.12-.02.13-.02.13-.02.13-.02.13-.02.13-.02.13v.13s-.03.13-.03.13v.12s-.02.12-.02.12v.12s-.02.11-.02.11v.11s-.01.1-.01.1v.09s0,.08,0,.08v.07s0,.06,0,.06v.05s0,.03,0,.03h0s0,0,0,0Zm0,0c.05.43-.26.83-.7.87-.43.05-.83-.26-.87-.7l1.57-.18Zm5.25,1.63l.1,1.58h-.21s-.22.03-.22.03l-.23.02-.23.02h-.24s-.24.03-.24.03h-.25s-.25.02-.25.02h-.26s-.26,0-.26,0h-.26s-.26-.02-.26-.02l-.26-.02-.26-.03-.26-.04-.26-.05-.26-.06-.25-.07-.25-.08-.25-.1-.24-.12-.23-.13-.23-.15-.21-.17-.2-.19-.18-.22-.17-.24-.14-.26-.12-.28-.1-.29-.07-.31-.05-.32,1.57-.18.03.2.04.18.05.16.06.14.07.12.08.11.09.1.1.09.11.09.12.08.13.07.14.07.15.06.17.06.18.05.19.04.2.04.2.03.21.02.22.02h.22s.23.02.23.02h.23s.23,0,.23,0h.23s.23-.02.23-.02h.23s.23-.03.23-.03h.23s.22-.03.22-.03l.22-.02h.21s0-.01,0-.01Zm0,0c.44-.03.81.3.84.74s-.3.81-.74.84l-.1-1.58Zm4.79-1.09l.6,1.46h0s-.16.06-.16.06l-.16.06-.16.06-.16.06-.16.06-.16.06-.16.05-.15.05-.16.05-.16.05-.16.05-.16.04-.16.04-.16.04-.16.04-.16.04-.16.04-.16.04-.16.03-.16.03-.17.03-.17.03-.17.03-.17.03-.17.02-.17.02-.18.02-.18.02-.18.02-.18.02h-.19s-.19.03-.19.03l-.1-1.58h.18s.17-.03.17-.03l.17-.02.17-.02.16-.02.16-.02.16-.02.16-.02.15-.02.15-.02.15-.03.15-.03.15-.03.15-.03.14-.03.14-.03.14-.03.14-.04.14-.04.14-.04.14-.04.14-.04.14-.04.14-.05.14-.05.14-.05.14-.05.14-.05.14-.05.14-.06.15-.06.15-.06h0s0,0,0,0Zm0,0c.4-.16.87.03,1.03.43.16.4-.03.87-.43,1.03l-.6-1.46h0Zm8.22-5.57l1.17,1.07-.05.05-.26.24-.26.23-.25.23-.25.22-.25.22-.25.22-.24.21-.24.21-.24.2-.24.2-.24.2-.24.19-.24.19-.25.19-.25.18-.25.18-.25.18-.26.18-.26.17-.27.17-.27.17-.28.17-.28.16-.29.16-.3.16-.3.16-.31.16-.32.15-.33.15-.34.15-.35.15-.36.15-.6-1.46.34-.14.33-.14.32-.14.31-.14.3-.14.29-.15.28-.15.28-.15.27-.15.26-.15.26-.15.25-.16.25-.16.24-.16.24-.16.24-.17.23-.17.23-.17.23-.18.23-.18.23-.18.23-.19.23-.19.23-.2.23-.2.24-.21.24-.21.24-.22.25-.22.25-.23.26-.23.26-.24-.05.05h0Zm.05-.05c.32-.29.82-.27,1.12.05.29.32.27.82-.05,1.12l-1.06-1.17h0Zm4.25-2.3l-3.13,3.42-1.17-1.07,3.13-3.42,1.21,1.02-.04.05Zm-1.17-1.07c.29-.32.8-.34,1.12-.05.32.29.34.8.05,1.12l-1.17-1.07h0Zm.26-.38l1.28.93h0s-.02.02-.02.02l-.02.02-.02.03-.02.03-.02.03-.02.03-.02.03-.02.03-.02.03-.02.03-.02.03-.02.03-.02.03-.03.03-.02.03-.03.03-1.25-.97.02-.02.02-.02v-.02s.03-.02.03-.02l.02-.02.02-.02.02-.03.02-.03.02-.03.02-.03.02-.03.02-.03.02-.03.02-.03.02-.03.02-.03h0s0,0,0,0Zm0,0c.26-.35.75-.43,1.1-.17.35.26.43.75.17,1.1l-1.28-.93Zm.85-1l.99,1.23h0s0,0,0,0h0s0,0,0,0h-.01s-.01.02-.01.02h-.01s-.02.03-.02.03l-.02.02-.02.02-.02.02-.02.02-.02.02-.02.03-.02.03-.02.03-.02.03-.02.03-.02.03-.03.03-.02.03-.05.06-.04.06-.04.05-.04.05-.03.04-.03.04-1.28-.93.03-.05.04-.05.04-.06.05-.06.05-.06.05-.07.03-.04.02-.03.03-.03.03-.03.03-.03.03-.03.03-.03.03-.03.03-.03.03-.03.03-.03.03-.03.03-.03.03-.03.03-.03.03-.03.03-.03.03-.03.04-.03.04-.03h0s0,0,0,0Zm0,0c.34-.27.84-.22,1.11.12.27.34.22.84-.12,1.11l-.99-1.23h0Zm1.41-.66l.26,1.56h0-.04s-.03.01-.03.01h-.03s-.03.01-.03.01h-.03s-.03.01-.03.01h-.02s-.02.01-.02.01h-.02s-.02.02-.02.02h-.02s-.01.01-.01.01h-.02s-.02.02-.02.02h-.01s-.01.01-.01.01h-.01s-.02.02-.02.02h-.01s-.02.02-.02.02h-.02s-.01.02-.01.02h-.02s-.02.03-.02.03h-.02s-.02.03-.02.03l-.02.02-.02.02-.02.02-.02.02-.03.02-.03.02-.99-1.23.03-.02.03-.02.03-.03.03-.03.03-.02.03-.03.04-.03.03-.02.03-.02.04-.03.04-.03.04-.02.04-.02.04-.02.04-.02.04-.02.05-.02.05-.02.05-.02.04-.02.05-.02.05-.02.05-.02.05-.02.05-.02.05-.02h.05s.05-.03.05-.03h.06s.06-.02.06-.02h.06s.06-.02.06-.02h0Zm0,0c.43-.07.84.22.91.65.07.43-.22.84-.65.91l-.26-1.56Z"/>
</svg>