<svg id="Tryb_izolacji" data-name="Tryb izolacji" xmlns="http://www.w3.org/2000/svg" viewBox="0 0 62.59 62.47">
  <defs>
    <style>
      .cls-1 {
        fill: #2b2a29;
        fill-rule: evenodd;
        stroke-width: 0px;
      }
    </style>
  </defs>
  <path class="cls-1" d="m9.86,18.2c.19-.57.37.18.36-1.5,0-.25-.03-.75,0-.97.07-.6.18-.06.36-.62,0-.75-.19-1.05.36-1.28,0-.23-.02-.63,0-.84.05-.5.15-.13.33-.52.26-.56.22-.33.36-.58l.2-.52c.27-.35.22-.47.47-.85l.07-.12s.02-.05.03-.07c.18-.5.21-.71.78-.96.02-.63.22-.64.84-1.29l.75-.75c.25-.26.25-.36.57-.56.02,0,.21-.15.21-.16.23-.21.16-.22.33-.46.59-.03.77-.23,1.06-.71l.59-.03c.31-.67.21-.08.79-.53.49-.37.43.04.83-.57,1.01-.06.27-.37,1.67-.37l.2-.36h1.29c.13-.28.02-.25.32-.36.68,0,2.28.1,2.77-.07.45-.15.39-.4,1.1-.29.63.1-.02.36,1.15.36.55,0,2.37-.1,2.75.05.51.2.15.37,1.04.36,1.2-.01.61.13,1.15.36.22,0,.69-.03.88,0,.52.08.17.2.62.36h.53c.4.13.17.25.49.37.36.14.43-.09.82.17.31.2.39.16.67.3.31.16.01.06.24.2.26.16.09.04.41.12.43.1.25.18.69.29.14.04.28.03.38.06.39.11.34.25.63.34.25.08.17.02.35.19.46.44.2.04.65.31l.52.46c.19.15.46.16.66.31.17.13-.09.05.25.18l.35.09s.04.02.06.03c.26.17.41.56.72.66.42.13.39.13.73.44.47.43.51.17.85.48.02.02.07.07.08.09.2.2.17.09.33.41.79.11,1.17.62,1.68,1.19l.53.52c.37.29,0,.03.43.19.51.18.91.83,1.28,1.19l1.05,1.07c.47.42,1.01.84,1.23,1.43.14.38.57.75.89,1.03.44.39.42.25.59.75.13.37.63.76.93,1.08.34.37.07.41.48.84.73.78.31,1.07,1.15,1.49v.56c.69.39.1.22.55.84.3.41.1.37.61.89.29.3.23.35.36.7l.22.3s.02.04.03.06c.11.21.09.36.24.55.12.15.05-.18.18.28v.69c.32.22.31.21.41.54.16.54.38-.04.4,1.37.71.3.08.61.49,1.09.19.21.23.43.22.8-.02,1.11.21.51.36,1.06v1.41c.2.14.28.13.36.35.07.42.11,7.1-.08,7.49-.23.47-.29.12-.28.98,0,.63.08.71-.35.93v.92c-.47.4-.32-.04-.38.79l-.34.13-.02.67-.35.1v.61c-.47.16-.36.16-.36.65l-.44.35s-.03.03-.04.04l-.24.3c-.15.37-.13.4-.44.69l-.66.67s-.03.03-.04.05c-.05.05-.08.09-.13.14l-1.25,1.3s-.03.03-.04.05c-.35.36,0,.11-.52.24-.29.07-.34.14-.56.35-.44.42.05.13-.57.32-.51.15-.03.15-.56.32l-.58.29c-.18.1-.43.1-.54.2-.43.43-.05.11-.59.27-.56.17.15.38-1.19.38-.35.57-.63.3-1.24.35-.4.03-.35.11-.51.35-.79.02-2.13-.16-2.84.09-.31.11-.07.06-.38.22-.28.15-.73.11-1.12.11-.94,0-.5-.37-2.02-.36-1.17,0-1.68.21-2.07-.36h-1.28c-.09-.12-.15-.23-.22-.35-1.34-.02-1.2.15-1.4-.37-.19,0-.57.02-.74,0-.25-.04-.3-.17-.45-.35-.31-.01-.68.05-.89-.12-.35-.29-.25-.25-.79-.26-.09-.25-.03-.18-.15-.39-1.04-.02-.64-.15-1.41-.39-.47-.15-.14-.19-.56-.33-.1-.03-.1,0-.21-.05-.32-.12-.11-.12-.36-.25-.28-.14-.44-.11-.62-.25-.21-.16-.42-.12-.63-.27l-.42-.45c-.31-.3-.51-.19-.9-.52-.02-.01-.03-.03-.05-.04-.1-.08-.27-.16-.4-.23-.69-.36-.31.04-.64-.57l-.62-.03c-.17-.39-.01-.14-.26-.41,0,0-.16-.15-.19-.18-.01-.01-.04-.03-.05-.04-.01-.01-.04-.03-.05-.04-.63-.51-.49-.27-.87-.54l-.52-.44s-.03-.03-.04-.05c-.01-.01-.03-.03-.05-.04l-.64-.68c-.16-.11.03-.01-.18-.09-.48-.19-.13.1-.53-.26l-2.3-2.38s-.03-.03-.05-.04l-.87-.91c-.1-.13-.06-.07-.16-.16l-.15-.12s-.03-.03-.04-.05l-.32-.49c-.19-.39-.41-.57-.71-.87-.1-.1-.08-.09-.17-.18-.72-.71-.46-.11-.7-.89-.08-.25-.29-.45-.49-.65-.77-.76-.38-.72-.8-1.14-.27-.27-.24-.69-.58-1.01l-.26-.26c-.09-.18-.02-.09-.06-.21-.07-.19,0-.1-.12-.24l-.32-.29s-.03-.03-.05-.04c-.02-.01-.03-.03-.05-.04-.11-.09-.19-.1-.26-.16,0-.17.01-.29-.04-.45-.16-.45-.05.01-.21-.35-.2-.45-.01-.37-.46-.68-.02-.5-.16-.51-.29-.87-.13-.36.1-.13-.17-.45-.31-.38-.27.06-.28-.92-.1-.09-.05-.05-.2-.12-.05-.02-.15-.04-.19-.05-.05-1.17-.3-.38-.33-1.78l-.4-.21v-.84s-.24-.17-.24-.17c-.25-.29-.06-.82-.14-1.15-.15-.67-.21.08-.3-.61-.1-.73.27-.82-.39-1.27-.03-.54.06-2.51-.06-2.85-.19-.54-.32-.06-.31-1.17,0-.5,0-1,0-1.5h0ZM23.24.36c-3.42,0-1.77.23-2.56.36h-1.08c-.07.13-.14.3-.24.4-.17,0-.57-.01-.71.02-.42.1-.12.25-.52.3-.36.05-.58-.04-.88.18l-.87.46c-.53.31-.16-.04-.86.55l-.56.31c-.33.1-.57.45-.84.59-.02.01-.04.02-.07.03-.07.03-.31.04-.58.29-.01.01-.03.03-.05.04-.5.43-.34.41-.63.69l-2.48,2.46c-.24.23-.53.42-.72.69-.43.61.3.12-1.32,1.68-.48.46-.03.47-.81,1.14l-.27.26c-.3.29-.22.09-.31.51-.1.47-.34.61-.7.84-.04.49.07.3-.19.61-.16.19-.07-.01-.17.25-.08.22.03.1-.11.35-.32.6-.63.25-.63,1.14-.17.09-.2.07-.39.15-.03.73.07.3-.25.71-.2.26-.04-.02-.13.36-.09.38-.2.19-.34.64-.13.44-.16.31-.32.66-.22.46.22.31-.38.55-.12.93-.14.5-.33.87-.22.42.07.13-.15.48-.09.13-.14.09-.31.24-.02,1.16-.04.76-.25,1.04-.17.23-.05.12-.15.45,0,.02-.01.05-.02.07l-.15.22c-.21.28-.12-.08-.16.42-.07.9-.04.32-.29.8-.2.36.02.87-.24,1.19,0,.01-.07.04-.12.13-.1.17-.07.21-.07.44-.02,1.11-.27.27-.31,1.95-.01.79-.18.22-.37.79,0,.41,0,.83,0,1.24,0,.93-.36.48-.36,1.41v8.03c0,1.09.36.36.36,1.41,0,.29-.02.61,0,.89.03,1.05.29.01.36,1.49.02.33.11.45.26.64.26.32.1.2.14.68.07.87.32-.06.32,1.43.6.33.29.15.42.86.09.54.07.12.26.46.17.3-.02.22.18.53.17.27.1-.11.26.43l.09.28c.14.25.02-.03.16.19.2.31.02.23.17.53.25.52.3-.28.3,1.54,0,.53-.36.35-.36,1.06,0,.57-.11,3.11.04,3.51.16.42.11.08.24.29.17.27,0,.6.12.93.12.32.09.05.21.34.1.23.02.22.11.41.23.44.24-.16.32.82l1.33,1.14c.09.08.09.09.18.18l.55.52c.75.63.54.21.9.5.01.01.03.03.04.04.02.01.03.03.05.05.18.16.43.16.7.16.08.42.06.2.18.34h.97s.05.21.05.21c0,.02.03.04.03.06.01.02.03.05.04.06,0,.02.03.05.05.07h3.62c.8,0,.39-.35.97-.35h1.15c.34.11.09.09.32.27.33.27.07.04.44.17l.42.23c.33.12.36.04.59.27.2.19.44.17.66.32.44.31.39.22,1.02.22.32.54.13.4.97.4.48.16.14.23.53.36.4.07.77-.09,1.09.17.24.2-.1.15.4.19.19.02.43-.02.62.01.46.09.16.31.89.35,2.05.12.85-.16,1.62.32.31.19,7.43.11,8.88.09,1.29-.01-.48-.39,2.11-.36.09,0,.53,0,.58-.01.25-.07.08-.08.3-.35h1.24c.33-.57.4-.4,1.06-.41.41-.01.39-.08.58-.36.29,0,.79.05,1.05-.04.45-.16,0-.28.67-.36.76-.1.32-.11.82-.26.59-.18.4.07.76-.39l.88-.03c.18-.2.19-.31.44-.39l.42-.19s.03-.03.05-.04c.31-.22.28-.02.78-.37l.12-.07s.05-.02.07-.03c.4-.14.23,0,.48-.21.15-.12-.04-.02.16-.12.32-.15.43-.09.67-.4l.62-.04c.15-.47.15-.34.65-.35.32-.67.23,0,1.26-.94.17-.15.34-.17.61-.2.36-.61-.02-.18.59-.47.38-.18.6-.51.94-.65.67-.28.86-.91,1.51-1.12.31-.1.52-.36.78-.56.71-.56.41-.65,1.08-.86.31-.1.23-.08.47-.32l1.13-1.23s.04-.03.05-.04c.02-.01.04-.03.05-.04l.19-.17c.2-.19.12-.13.25-.29.14-.17,0,0,.12-.13l1.49-1.42c.25-.25.26-.35.62-.52.05-1.15.67-.47.75-1.65.34-.08.48-.23.65-.49.33-.52-.25-.38.44-.75l.02-.57c.51-.25.36-.14.36-.93.12-.42.03-.16.34-.35.05-1.47.25-.77.37-1.33.03-.16.01-.67.01-.87.11-.67.42.45.41-1.68,0-.4-.05-.77.14-1.05l.18-.24c.15-.41.04-3.4.01-4.18-.93-.54.26-2.37-.7-2.77l-.02-1.82-.2-.05s-.04-.03-.06-.04l-.14-.89c-.3-.25-.2,0-.35-.35,0-.22.03-.46-.03-.67l-.16-.26c-.3-.31-.09-.43-.19-.8-.05-.19-.2-.26-.33-.38-.03-.72.16-.78-.37-1.01l-.02-.67c-.58-.15-.11.02-.34-.18v-.79c-.37-.32-.28-.11-.43-.59-.09-.28-.22-.26-.35-.71-.16-.5-.08-.05-.28-.43-.14-.27-.02-.4-.46-.85-.01-.01-.03-.03-.04-.04-.41-.38-.28-.4-.57-.85-.25-.37-.04-.4-.51-.91l-.25-.28s-.02-.04-.03-.06c-.21-.47.07-.21-.36-.7-.01-.01-.03-.04-.04-.05l-.31-.4c-.17-.39-.05-.36-.37-.68-.28-.28,0-.15-.49-.29-.04-.77-.55-.91-1.01-1.38l-2.82-3.35s-.03-.03-.04-.04l-3.25-3.11s-.04-.03-.05-.04l-.59-.39c-.3-.13-.52-.53-.79-.77l-.72-.78c-.71-.03-.62-.3-1.12-.64-.25-.17-.05-.01-.32-.1-.3-.1-.57-.39-.71-.68-.64-.05-.44.05-.79-.32-.43-.45-.18-.29-.7-.43-.49-.13-.05.02-.34-.21-.14-.11.01-.03-.15-.1l-.41-.13c-.31-.21-.02-.18-.51-.34-.61-.2-.39-.48-1.15-.71-.32-.1-.17-.21-.56-.33-.1-.03-.12-.01-.23-.04-.44-.12-.09-.17-.55-.27-.4-.09-.5.07-.85-.21-.28-.22.07-.05-.37-.18-.42-.12-.24-.3-.63-.36-.35-.06-.58.08-.85-.17-.33-.3-.34-.19-1-.2-.25-.46-.1-.35-1.06-.35-.38-.41,0-.33-.7-.36-.71-.03-.46-.23-.79-.35l-1.59-.02s-.09-.16-.1-.16c0-.01-.03-.04-.03-.05l-.13-.17c-.56-.02-1.12,0-1.68,0-.85,0-.24-.36-2.11-.36h-2.03c-1.18,0-.6.18-1.15.36h0Z"/>
  <path class="cls-1" d="m50.95,24.91c-2.24.02-.79.27-1.6.37-.2,0-.71-.03-.87,0-.49.09-.13.2-.55.33-.73.22-.93-.33-1.36.39h-1.28c-.21.39.19.35-1.5.38-.07.11,0,.02-.08.12-.24.3-.11.22-.98.23-.02.02-.12.16-.13.17-.48.48-1.26-.21-2.22.62l-.4.4v1.41s.16.08.16.09l.1.07s.04.03.05.04l.4.32s.03.03.05.04c.36.3.03.08.48.23.42.13.14-.05.36.32.36.04.4-.01.67.17l.2.16c.52.42-.03.33.84.39.4.62,0,.18.62.44.41.17.03.07.3.23.28.16.15.03.43.11.33.1.15.1.3.21.24.17.14.07.4.16.5.18-.16.02.69.37.25.1.09.04.31.2.02.01.04.03.05.04.73.51.04.25.73.5.14.05.11.03.19.08.18.11.06.12.31.22,1.06.43.15.16.7.36.22.08.2-.02.43.1.32.16-.06.05.3.23.44.22.14-.21.92.67.34.38.28.04.7.35.45.33-.24-.04.53.25.62.23-.28.06.71.35.22.06.12.03.2.08.39.24-.35-.06.58.29l.13.06c.25.15-.06.08.29.23.21.09.18,0,.41.12.45.23-.05.26.79.28l.07.38,1.06.02c.53,0,.41.02.55-.36h.61c.03-.07.08-.21.1-.24l.18-.28c.28-.46.13-3.72.13-4.45,0-.6-.02-.47-.4-.72v-1.58c-.36-.29-.37-.2-.37-.79,0-.73.1-.56-.33-.89-.13-1.37-.21-.51-.37-1.24-.07-.33.05-.41-.6-.98l-.81-.78c-.56-.5-.17.06-.8-.44-.11-.09.13-.17-.44-.17-1.38,0-1.63-.16-1.93.35h0Z"/>
  <path class="cls-1" d="m13.97,13.35l.33.26.02.91c.11.06.29.14.39.21.03.48.14.54.43.89l.39.42c.07.06.08.07.14.13.47.45.38.14.89.52l.53.19c.33.14.16.2.5.3.25.08.08-.06.32.1l.42.45c.36.31.46.13.76.39l.28.17c.58.18.44.26.86.38.24.07.24.15.43.26.19.12.25.06.41.13.3.12.07.16.48.38.08.04.12.05.24.12l.26.18c.44.27.15-.04.39.44,1.07.09.28.18.99.37.54.15.41.37,1.06.37l.06.38c.86.04.43.1.88.33.55.27.61-.1,1.06.75.06,0,.33.02.36.02.43.1.15.21.55.34l1,.36c.63.2-.16.33,1.27.33.37,0,.34-.15.57-.34.01-.01.04-.03.05-.04.01-.01.04-.03.06-.04.01,0,.04-.03.06-.04.07-1.09.12-1.18-.32-1.32,0-.09-.02-.39-.03-.44-.12-.47.02-.06-.17-.3l-.18-.33s0-.05-.02-.07c0-.02-.01-.05-.02-.07l-.5-.57c-.27-.27-.18-.19-.19-.69l-.38-.06-.14-.64c-.44-.63-.06-.38-.41-.82-.2-.24-.12-.38-.27-.68l-.29-.7c-.15-.28-.04,0-.22-.21l-.37-.6s-.03-.03-.04-.05l-.37-.51c-.11-.23,0-.19-.12-.41-.22-.41-.3.05-.3-.77-.16-.09-.2-.08-.38-.16,0-.06-.02-.32-.03-.36-.05-.19-.04-.13-.12-.26l-.19-.52c-.11-.47.04-.06-.27-.43l-.41-.57c-.17-.44-.22-.38-.34-.63-.27-.56.15.47-.05-.14-.14-.43-.34-.46-.38-1.06l-.39-.16c0-.36.05-.37-.12-.6l-.41-.38c-.19-.15-.69-.47-.65-.76-1.59-.12.78-.44-3.12-.37-.46.71-.43.07-1.38,1.08-.33.35-.58.63-1.02.75l-.34.18s-.03.03-.04.05l-.41.47s-.03.03-.04.05l-.22.28c-.27.61-.52.72-.94,1.2-.25.29-.12.43-.35.72-.22.27-.12.43-.25.8-.1.3-.14.13-.23.49h0Z"/>
  <path class="cls-1" d="m40.08,11.83c0,.63.1.65-.19,1.05-.25.35-.17.64-.17,1.18-.14.72-.32-.72-.36,1.56l-.39.29c-.02,2.14-.25.85-.37,1.58,0,.14.01.4-.01.52-.07.35-.02.08-.22.39-.2.3-.13.68-.13,1.12-.12.77-.41-.61-.41,1.62-.54.3-.36.49-.36,1.29-.06.49-.47.03-.36,1.15.05.51.16-.1.37.61.19.64.09.06.79.61.05.04.17.13.2.15.34.3,0,.34,1.12.32.34-.64.25-.22,1.22-.36.62-.09.09-.18.61-.36.4,0,.67.06.96-.11.24-.14-.06-.08.32-.21.21-.07.28-.04.49-.04.78-.02.35-.12.76-.3.27-.12.69-.06,1.01-.06.41-.14.15-.28.53-.41h.88c.6-.14-.07-.33,1.06-.31.98.02.38-.11.97-.36.17,0,.47.02.62,0,.5-.05.15-.02.4-.19.65-.45.72.15,1.38-.39l.48-.41c.25-.26.18.02.24-.22.03-.52.07-1.63.02-2.12-.07-.63-.48-.26-.77-1.14-.11-.34-.18-.35-.44-.61l-.26-.28c-.15-.18-.08-.1-.25-.27-.84-.82-.27-.51-.62-.98l-.09-.09s-.03-.03-.04-.05l-2.56-2.39c-.61-.31-.04.13-.69-.36-.1-.08-.08-.04-.16-.11-.19-.17-.23-.35-.51-.57-.23-.18-.1-.03-.29-.22l-.54-.62-.53-.04c-.15-.3.01-.11-.21-.35-.09-.1-.29-.27-.41-.34h-2.12c-.4.18.02-.06-.27.21l-.72.59h0Z"/>
  <path class="cls-1" d="m12.53,19.03v4.7c.79.35.03,1.37.49,1.87.25.26.22.19.21.81-.02,1.45.36-.16.36,1.71.7.37-.02.56.85,1.1.36.22.23.25.68.71l.09.09s.03.03.04.04c.76.77.37-.11.97.79.42.02.85,0,1.28.01.72,0,.75.13,1.02-.33,1.41-.04,1.14.09,1.42-.43h1.26c.55-.68,0-.2,1.23-.36.39-.05.27-.11.45-.4,2.69-.04.01-.25,2.6-.33.35-.45-.14-.43,1.22-.44.28-.52.52-.35,1.28-.36.42-.13.16-.1.33-.23.23-.17.14-.07.37-.15.38-.12.04.07.34-.21.18-.16.04-.09.3-.22,0-1.19-.04-.8-.23-1.06-.29-.4.06-.2-.34-.73l-.21-.31c-.15-.01-.33,0-.47-.05-.38-.15-.04-.07-.3-.23-.41-.26-.18.16-.76-.39-.62-.59-.32-.3-.71-.44-.34-.12-.1-.02-.31-.22-.37-.36-.08.06-.6-.27-.89-.56.3.04-.59-.29-.24-.09-.21-.16-.31-.23-.3-.2-.2-.01-.46-.16-.35-.2-.25-.54-.93-.71-.15-.04-.03.03-.23-.06-.33-.15.07.05-.2-.16-.28-.21-.03-.03-.36-.14-.54-.18-.03-.19-.7-.36-.8-.19.25-.04-.79-.37-.16-.05-.06,0-.2-.08-.26-.14.06-.02-.22-.15-.25-.11-.21-.02-.43-.1-.4-.15,0-.07-.36-.26-.33-.18-.27.05-.65-.3-.23-.21-.32-.37-.55-.45-1.05-.38-.26-.22-.78-.37-.14-.04-.14,0-.29-.06-.5-.2.23-.28-.79-.33-.07-.1-.15-.28-.21-.4l-.56-.02c-.4-.75-.12.06-.89-.57-.23-.19-.68-.18-.97-.12-.52.1-.54.51-1.05.8-.02.01-.09.05-.12.06-.3.17.03.04-.28.16h0Z"/>
  <path class="cls-1" d="m39,32.37c-.03,2.31.35.7.36,2.01l.39.05.02.62s.06,0,.07.04c.07.24.28-.04.28.73.1.04.24.09.29.13l.07.1s.02.04.03.05l.36.69s.02.05.03.07c.11.24.21.21.29.49.15.52-.17.26.41.42,0,.13,0,.33.03.45.07.24.06.14.18.3.29.38.03.19.25.61l.49.86c.72.83.28.54.73,1.12.15.19.14.46.31.67.16.2.08-.02.16.26.18.6-.22.23.36.59l.03.55c.68.34.15.29.71.95.04.05.05.07.11.15.19.26.21.57.39.78.41.47.16.41.45.78l.24.55s.02.04.03.06c.18.29.54.42.71.68.2.31.33.47.78.75.38.23.57.16,1.09.16.48.09,0,.06.44.34.02-.02.03-.07.04-.06,0,.01.03-.04.04-.05.2-.23-.07-.13.29-.21.15-.04.62-.02.8-.02.38-.8.23.06,1.3-.99.26-.25.16-.21.32-.47.76-.08.43-.08.87-.45l1.14-1.44s.03-.04.04-.05c.02-.02.06-.08.08-.1.19-.23.61-.37.74-.65.1-.2.08-.39.23-.58.37-.47.19-1.57.19-2.44-.71-.54-.02-.48-1.15-1.48-.1-.08-.17-.17-.26-.27-.42-.41-.38-.05-.79-.36-.22-.17-.48-.18-.71-.35-.12-.09-.09-.13-.34-.21-.4-.13-.1.11-.42-.17l-.74-.51c-.3-.14-.33-.13-.5-.45-.58-.01-.45-.14-.9-.29-.2-.07-.17,0-.34-.08-.45-.23.28-.13-.53-.3-.55-.12-.19.02-.54-.36h-.53c-.23-.88-.21-.04-.8-.63l-.09-.09s-.07-.07-.09-.09c-.01-.01-.17-.16-.18-.16-.19-.14-.43-.15-.69-.18l-.09-.34h-.55c-.33-.48.13-.23-.42-.4-.4-.13-.28-.17-.57-.31-.22-.1-.17-.02-.36-.09-.37-.14-.08-.21-.65-.39l-.19-.07s-.39-.36-.46-.42c-.46-.4-.21-.06-.62-.26-.25-.12-.23-.22-.57-.32-.68-.22.11-.34-1.43-.34-.35,0-.2.24-.65.43h0Z"/>
  <path class="cls-1" d="m29.33,15.82c.11.25-.01.2.22.57.16.26.04-.17.16.31.03.11.03.32.04.44.03.01.12.06.14.07l.13.13c.28.32-.03.22.45.33.07,1.09.15.06.38,1.05.08.33.02.14.18.34.36.44.04.34.28.69.18.26.04-.12.21.24.07.16.06.31.08.5.66.29.02.19.69.49l.02.66c.51.16.07-.04.68.49l.23.26c.13.05,1.08.18,1.55-.35.24-.27.11-.14.17-.34.19-.62-.12-.09.35-.51.02-.29-.02-1.01.05-1.22.14-.43.09.05.25-.4.08-.23,0-.43.05-.67.09-.51.32-.09.35-.89.02-.62-.06-.65.33-.97.06-.79-.11-1.07.21-1.37l.18-1.32c.65-.43.45-.27.45-1.29.18-.53.2-.04.36-.53,0-.21-.02-.69.02-.88.11-.45.56-.2.34-2.3-.07-.35,0-.16-.35-.33l-.03-.64c-.29-.11-.14-.04-.32-.16-.17-.12-.1-.16-.32-.21l-.14-.1s-.04-.03-.07-.05l-.3-.25c-.78-.86-.41-.46-.92-.64-.47-.17-.1-.2-.48-.3-.28-.08-.44.04-.73-.1-.31-.15.02-.22-.48-.29-.78-.12-.74.26-1.23-.36l-1.59-.03-.26-.34h-3.09c-2.45-.01-.64.19-2.09.38-.14,1.06-.3.39-.4,1.03-.16,1.05.27,1.01.35,1.06l.05.88c.25.21.14.11.35.34.01.01.03.03.04.05l.13.13c.13.15.06,0,.14.22.15.39-.05.12.21.51.04.07.16,0,.16.61.5.18.29.15.43.58.15.48.17.03.34.58.12.39.13.38.37.61.51.51.17-.04.38.65.14.46.18,0,.36.58.22.73.12.12.34.63.11.25,0,.18.12.4.13.22.04-.03.2.24l.26.67s.03.05.04.07h0Z"/>
  <path class="cls-1" d="m32.38,41.21c.23,1.74-.26,1.21-.32,1.69,0,.24.02.55-.03.78-.12.56-.18.15-.31.56-.07.23-.03,1.42-.03,1.75.28.38.2-.04.35.46.07.23-.04.11.1.35.25.46-.25-.29.08.1l1.01,1.01c.73.75.31.15,1.05.64l.11.08c.26.12.4.04.66.07.41.04.2.1.45.36.25,0,.76-.02.97.02.64.1.05.23.62.36.25.03,1.28-.07,1.52.06.23.13.05.1.24.3h4.23c.27-.06.02-.13.5-.39.72-.39.07-.27.72-.81.01-.01.04-.03.06-.05v-.97s-.33-.18-.33-.18c-.06-.85-.05-.61-.37-.79-.13-.94-.07-.39-.31-.79-.17-.27-.03-.1-.11-.34-.17-.51-.12-.03-.31-.49-.16-.39.13-.06-.25-.55-.26-.34-.09-.31-.23-.57-.18-.34-.09.09-.32-.51-.11-.28-.09-.23-.29-.48-.26-.32-.02-.08-.4-.34l-.04-.58-.32-.12c-.04-.24-.02-.42-.11-.57-.19-.33-.12.12-.29-.42-.15-.49.03-.13-.23-.47-.22-.29-.11-.31-.21-.52-.14-.31-.09-.01-.3-.37-.19-.32-.29-.62-.54-.88-.32-.34-.09-.02-.23-.48-.19-.64.03.12-.27-.42-.17-.3,0-.24-.19-.53-.24-.36-.07.2-.27-.46-.17-.56-.2-.15-.36-.71-.07-.22.03-.06-.08-.26-.22-.39-.45-.18-.64-.79l-.14-.42s-.03-.05-.04-.07c0-.02-.03-.05-.04-.07-.15-.94.07-.2-.5-1.07-1.08-.08-.35-.19-.92-.38-1.15-.19-1.28.82-1.37.97-.32.51-.18-.2-.27.94-.05.7-.28.21-.32.96,0,.19,0,.43,0,.62-.13.59-.38-.17-.36.88,0,.73.14.67-.35.95-.01,2.21-.24.82-.36,1.62,0,.22.03.68,0,.87-.07.47-.13.22-.35.44h0Z"/>
  <path class="cls-1" d="m21.44,32.36c-.28.17.02.17-.4.29-.52,0-.72-.07-1.09.16-.5.32-.43.17-1.12.22-.24.32-.51.63-.82.83v2.33c.85.65-.21.15.92,1.23l.75.75c.31.34.07.13.24.46,0,.02.02.04.03.06.01.02.03.04.04.05.02.02.07.07.08.09l.29.33s.03.03.05.04c.36.35.41.56.91.95l.41.36s.03.03.04.05l.74.77s.03.03.05.04l.3.25c.57.45.24.38.56.5.08.03.29.03.39.04.09.14.35.62.54.69.4.08.25.06.53.35,1.34,1.37.86.19,1.37,1.1,1.74,0,1.99.22,2.4-.23,0,0,.32-.41.62-.56l.04-.92c.49-.32.35-.32.36-1.42.32-.28.31-.07.36-.47.03-.25,0-.72.01-1,.4-.36.37-.18.36-.85-.01-.69-.12-.64.36-.84,0-1.05-.14-1.1.23-1.47.32-.32.05-.28.15-1.04.08-.62.2-.03.36-.62,0-.33-.03-.75.11-1,.21-.37.17.2.26-.86.07-.79.38-.19.37-.79,0-.26-.42-.88-.61-1.06,0,0-.12-.12-.14-.13l-.19-.16c-.2-.18-.07-.08-.26-.26l-.34-.29c-.64-.47-.74.12-1.2.21-.13.02-.46,0-.62,0l-.08.12c-.36.46-.87.16-1.33.25-.31.12-.13-.03-.26.36-1.08.02-1.1-.09-1.38.2-.5.54-1.16-.29-1.65.53-.29,0-.78-.02-1.03.01-.79.1.48.39-1.72.35h0Z"/>
  <path class="cls-1" d="m32.38,41.21c-.16.18-.13.21-.14.63,0,.98-.29.31-.35,1.14-.08,1.16-.13.42-.32,1.01-.1.31-.06,1.84-.03,2.17.79.52-.13.19.77,1.07l.97.97c.48.52.35.13.74.4.25.17-.07.06.22.21.2.1.51.05.74.05.77.13-.64.3,1.59.36l.21.32,1.64.04c.07.11.15.21.24.36l4.64.02c.2-.32.08-.27.45-.38.49-.15.4.07.4-.62.34-.19.38-.11.42-.53.13-1.64-.16-.89-.36-1.49-.24-.72-.07-.16-.31-.54-.12-.2-.05-.22-.13-.41-.12-.3-.17-.11-.29-.42-.07-.19.02-.13-.09-.35-.21-.43-.13.11-.3-.5-.19-.7-.13-.18-.32-.57-.19-.39.11-.15-.23-.56-.17-.2-.13.15-.22-.72-.17-.06-.1,0-.24-.11-.44-.32-.41-.44-.46-.61-.2-.67-.19-.22-.34-.64-.1-.27.05-.12-.13-.41-.13-.2-.04-.03-.13-.13-.19-.24-.11-.22-.18-.66l-.32-.14c0-.51-.06-.42-.2-.62-.29-.42-.08-.35-.27-.62-.43-.64-.58-.12-.65-1.18-.17-.08-.22-.07-.37-.16,0-.94-.16-.29-.35-.91-.29-.9-.16-.02-.39-.86-.1-.37-.29-.39-.54-.67-.48-.53.16-.62-.57-.77.01.02.03.05.04.07,0,.02.03.05.04.07l.14.42c.2.61.42.4.64.79.12.2.01.04.08.26.17.55.19.14.36.71.2.66.02.09.27.46.19.29.02.23.19.53.31.54.08-.21.27.42.13.46-.09.13.23.48.25.27.35.56.54.88.21.36.16.07.3.37.1.21-.01.23.21.52.26.34.08-.02.23.47.17.54.1.09.29.42.09.15.07.33.11.57l.32.12.04.58c.38.26.14.01.4.34.2.25.18.19.29.48.22.6.13.17.32.51.14.26-.03.23.23.57.38.49.09.15.25.55.18.45.14-.02.31.49.08.25-.06.07.11.34.24.4.19-.15.31.79.32.18.3-.06.37.79l.32.18v.97s-.04.04-.05.05c-.64.54,0,.43-.72.81-.48.26-.23.33-.5.4h-4.23c-.19-.21-.01-.18-.24-.31-.24-.13-1.27-.03-1.52-.06-.57-.14.03-.26-.62-.36-.21-.03-.72,0-.97-.02-.24-.26-.03-.32-.45-.36-.26-.03-.4.05-.66-.07l-.11-.08c-.74-.49-.32.11-1.05-.64l-1.01-1.01c-.33-.39.18.36-.08-.1-.14-.24-.03-.12-.1-.35-.15-.5-.07-.08-.35-.46,0-.33-.04-1.52.03-1.75.13-.41.19,0,.31-.56.05-.23.03-.54.03-.78.06-.48.55.05.32-1.69h0Z"/>
  <path class="cls-1" d="m21.44,32.36c2.2.04.93-.24,1.72-.35.25-.03.74,0,1.03-.01.49-.83,1.15,0,1.65-.53.27-.3.29-.18,1.38-.2.14-.39-.05-.23.26-.36.46-.09.97.2,1.33-.25l.08-.12c.15,0,.48.02.62,0,.45-.09.55-.68,1.2-.21l.34.29c.18.17.06.08.26.26l.19.16s.13.12.14.13c.18.18.6.8.61,1.06.02.6-.3,0-.37.79-.09,1.06-.04.48-.26.86-.14.25-.11.67-.11,1-.16.59-.27,0-.36.62-.1.77.17.72-.15,1.04-.36.37-.22.42-.23,1.47-.48.2-.37.15-.36.84.01.67.03.5-.36.85,0,.28.02.75-.01,1-.06.4-.04.19-.36.47,0,1.1.14,1.1-.36,1.42l-.04.92c-.3.15-.62.55-.62.56-.41.45-.66.23-2.4.23-.51-.91-.03.27-1.37-1.1-.28-.29-.13-.27-.53-.35.09.16.04.09.13.21.29.42.69.54.8,1l.66.06c.24.53.35.36,1.1.36.5,0,1,.02,1.5-.02.16-.12.11-.12.21-.22.55-.54.28-.4.7-.55.03-.24,0-.43.03-.63.08-.75-.02-.13.25-.48.2-.25.12-.82.12-1.19.16-.54.22,0,.35-.54.2-.85-.33-.82.36-1.31l.02-1.25c.72-.4.25-.64.38-1.32.04-.21.25-.28.35-.35.02-.3-.03-.78.06-1.04.15-.43.28-.05.31-.9.04-1.15.32.17.37-1.85l.35-.28c.09-1.09-.22-1.1-.8-1.72-.06-.06-.24-.27-.3-.33-.32-.3-.46-.46-.72-.51-.18-.03-.55,0-.74,0l-.24.35c-.55,0-.67-.09-1.05.19-.49.36-.59.08-1.13.2-.59.13.04.35-.98.35-.78,0-.51-.11-.88.36-.61.04-.91-.09-1.26.11-.4.23.23.25-1.44.26l-.24.37c-.18,0-.42-.01-.6,0-.38.01-.41.03-.56.17h0Z"/>
  <path class="cls-1" d="m29.33,15.82s-.03-.08-.04-.07l-.26-.67c-.16-.28-.08-.02-.2-.24-.13-.23-.02-.16-.12-.4-.22-.51-.11.1-.34-.63-.18-.59-.22-.12-.36-.58-.2-.69.13-.14-.38-.65-.24-.24-.25-.22-.37-.61-.17-.54-.19-.1-.34-.58-.13-.44.07-.4-.43-.58,0-.62-.12-.55-.16-.61-.26-.39-.06-.12-.21-.51-.08-.21,0-.07-.14-.22l-.13-.13s-.03-.03-.04-.05c-.21-.23-.1-.13-.35-.34l-.05-.88c-.07-.05-.51,0-.35-1.06.1-.64.26.04.4-1.03,1.45-.2-.36-.39,2.09-.39h3.09s.26.35.26.35l1.59.03c.5.63.45.25,1.23.36.5.07.17.14.48.29.28.14.44.02.73.1.38.1.02.13.48.3.51.18.13-.22.92.64l.3.25s.05.03.07.05l.14.1c-.06-.38-.05-.26-.44-.64-.18-.17-.27-.26-.38-.52-.8-.09-.53-.03-.79-.36l-.92-.04c-.31-.53-.67-.36-1.37-.36-.5-.31-.02-.38-1.06-.37-.91.02-.71.13-1.12-.36-.55-.01-4.37-.14-4.71.09-.19.13-.1.32-.5.24-.35-.07-.11-.1-.34-.17h-.16c-.09.22.18.25.16.64-.02.54-.51.12-.34,1.51.06.46.1.27.38.52,0,1.49.41.66.71,1.77.12.45-.09.2.37.39,0,.82.01.36.26.74.19.3.03.13.13.41.15.41.04.04.23.27.47.57-.4-.2.6.99.22.26.08-.04.2.36.23.72.14.19.35.58.12.23,0,.19.12.42.15.31.07.01.24.27.16.25.02.13.12.39.1.26.16.21.23.35.25.48-.17.53.48.64h0Z"/>
</svg>