<svg id="Tryb_izolacji" data-name="Tryb izolacji" xmlns="http://www.w3.org/2000/svg" viewBox="0 0 248.94 94.52">
  <defs>
    <style>
      .cls-1 {
        fill: #2b2a29;
        stroke-width: 0px;
      }
    </style>
  </defs>
  <path class="cls-1" d="m202.97,82.09c-2.18-1.11-4.31-2.21-6.19-3.81-1.68-1.44-3.11-3.14-4.34-4.98-1.21-1.82-2.27-3.73-3.3-5.66,2.35,3.62,5.08,6.81,8.44,9.56,3.34,2.74,7.03,5.02,10.89,6.94,4.85,2.41,9.95,4.28,15.17,5.73-1.94-.04-3.88-.2-5.77-.6-5.46-1.15-10.01-4.69-14.9-7.19h0Zm-36.34-41.44c-2.12-1.99-4.35-3.86-6.63-5.66-4.5-3.57-9.21-6.87-13.83-10.28-2.02-1.49-3.86-3.05-5.49-4.96-1.52-1.8-2.84-3.77-4.13-5.75-1.17-1.8-2.33-3.65-3.58-5.42,2.12,2.33,4.18,4.72,6.37,6.95,4.29,4.37,8.82,8.51,13.7,12.23,2.52,1.92,5.04,3.8,7.39,5.94,2.25,2.05,4.38,4.24,6.42,6.51,1.13,1.26,2.2,2.56,3.25,3.87-1.15-1.15-2.28-2.32-3.47-3.43Zm-38.3-30.98c.77,2.18,1.11,4.44,1.27,6.73.16,2.33.22,4.59-.26,6.89-.46,2.2-1.21,4.33-1.81,6.49-.6,2.17-.87,4.41-.94,6.65-.07,2.25-.06,4.52.02,6.76.06,1.74.29,3.49.85,5.15,1.17,3.49,3.72,6.07,6.48,8.39,3.49,2.93,7.3,5.48,11.25,7.75,3.78,2.16,7.62,4.37,11.65,6.05,4.32,1.8,8.85,2.54,13.49,2.94,2.27.19,4.55.35,6.82.53,2.12.16,4.24.37,6.29.95,1.5.43,2.9,1.05,4.16,1.98.49.36.97.75,1.39,1.19.16.17.33.34.46.53.06.09.15.35.2.32-.2.31-1.48.06-1.72.03-1.11-.13-2.21-.17-3.33-.14-2.2.06-4.38.34-6.57.58-2.22.24-4.44.3-6.66.47-2.48.19-4.94.48-7.42.71-4,.36-8.07.48-12.06.06-1.77-.18-3.57-.49-5.22-1.17-1.54-.64-2.45-1.73-3.62-2.83-3.15-2.98-7.86-.32-11.58-1-3.97-.72-7.36-3.59-9.6-6.83-1.93-2.79-2.97-6.15-5.25-8.69-2.15-2.39-5.21-3.51-8.24-4.33-2.93-.78-5.92-1.32-8.82-2.19-2.78-.84-5.6-2.01-7.6-4.19-.99-1.08-1.69-2.37-2.14-3.76-.1-.32-.39-.45-.71-.4-3.54.53-6.96,1.78-10.19,3.29-3.14,1.48-6.25,3.2-8.73,5.66-2.44,2.43-4.34,5.35-6.21,8.23-1.58,2.43-2.78,5.27-4.91,7.29-2.28,2.17-5.63,2.19-8.57,2.66-2.76.44-5.52,1.18-7.5,3.27-.95,1-1.81,2.09-2.72,3.14-.8.92-1.64,1.95-2.67,2.63-1.39.91-3.32,1.31-4.92,1.66-1.8.39-3.64.6-5.49.65-3.15.09-6.45-.21-9.61-.94,1.37-.02,2.73-.11,4.07-.28,2.31-.28,4.6-.78,6.74-1.71,1.89-.82,3.59-2.03,5.21-3.29,3.92-3.03,7.46-6.54,10.88-10.11,2.62-2.74,4.99-5.86,7.92-8.28,3.73-3.09,7.93-5.57,11.91-8.32,1.81-1.25,3.61-2.55,5.26-4.01,1.78-1.59,3.26-3.5,4.74-5.36,2.97-3.72,5.67-7.66,8.8-11.24,1.57-1.79,3.25-3.47,5.07-5.01,2.21-1.87,4.64-3.4,6.99-5.08,2.43-1.74,4.74-3.65,7.15-5.41,2.11-1.55,4.36-2.82,6.59-4.16,3.64-2.19,7.13-4.62,10.72-6.88,1.29-.81,2.6-1.71,4-2.32.16-.06.31-.11.47-.13,2.24,2.36,3.15,5.42,4.22,8.44h0Zm120.06,81.71c-2.87-.01-5.69-.43-8.5-.94-2.3-.42-4.62-.91-6.96-.92-1.66-.01-3.32.16-4.98.27-13.04-3.27-26.68-8.43-35.35-19.19-1.7-2.11-3.03-4.47-4.66-6.62-.8-1.06-1.63-2.1-2.48-3.13-.38-.65-.78-1.3-1.19-1.94-1.55-2.39-3.33-4.58-5.35-6.59-1.09-1.08-2.22-2.12-3.36-3.14-1.17-1.54-2.32-3.11-3.53-4.62-3.8-4.76-7.93-9.29-12.57-13.25-2.31-1.97-4.81-3.71-7.19-5.59-2.43-1.93-4.78-3.96-7.05-6.07-4.58-4.25-8.76-8.86-13-13.44-1.67-1.8-3.36-3.66-5.36-5.1-.71-.52-1.52-1.02-2.39-1.07-.13-.05-.26-.04-.39,0-.16.01-.33.05-.5.1-1.26.42-2.45,1.24-3.57,1.94-1.81,1.12-3.59,2.29-5.37,3.45-1.81,1.19-3.63,2.38-5.47,3.52-2.04,1.26-4.16,2.38-6.13,3.75-2.45,1.7-4.75,3.6-7.14,5.38-2.27,1.7-4.69,3.18-6.93,4.92-3.73,2.9-6.86,6.36-9.74,10.09-3.09,4-5.95,8.38-9.55,11.96-3.25,3.23-7.33,5.63-11.11,8.17-3.5,2.34-7.06,4.69-9.88,7.86-2.85,3.22-5.8,6.35-8.89,9.35-3.33,3.24-6.92,6.78-11.12,8.9-4.05,2.04-8.9,2.39-13.36,2.17-.76-.04-1.52-.09-2.28-.18-.14-.05-.26-.05-.36,0-.26.08-.36.36-.31.63.03.2.14.4.38.49,3.67,1.46,7.79,2.15,11.71,2.34,3.51.18,7.07-.14,10.44-1.15,1.35-.41,2.77-.82,3.87-1.73,1.03-.85,1.91-1.89,2.77-2.9.85-1,1.67-2.05,2.61-2.97,1.07-1.04,2.46-1.65,3.88-2.04,2.99-.83,6.27-.68,9.18-1.8,2.71-1.04,4.37-3.58,5.78-5.98,1.64-2.8,3.35-5.56,5.31-8.15,1.22-1.61,2.58-3.14,4.14-4.43,1.56-1.29,3.37-2.29,5.16-3.22,3.53-1.84,7.32-3.35,11.26-4.02,2.18,5.84,8.2,7.84,13.83,9.17,2.94.7,5.97,1.25,8.79,2.4,1.77.72,3.37,1.78,4.6,3.26,1.06,1.28,1.81,2.8,2.56,4.27,1.78,3.47,3.94,6.62,7.18,8.88,1.63,1.14,3.49,2.01,5.46,2.35,2.23.38,4.32-.18,6.54-.36,1.12-.1,2.36-.1,3.41.37.67.3,1.15.83,1.64,1.36,1.15,1.24,2.45,2.1,4.04,2.66,3.38,1.18,7.13,1.24,10.67,1.25,4.96.01,9.85-.78,14.79-1.08,2.25-.14,4.47-.27,6.71-.52,2.32-.26,4.65-.54,6.98-.47.95.03,1.89.24,2.84.22.52-.01,1.15-.06,1.54-.44.76-.75,0-1.77-.55-2.37-2.11-2.25-5.06-3.45-8.03-4.01-4.42-.82-8.99-.81-13.45-1.26-4.9-.5-9.5-1.76-13.93-3.94-4.17-2.05-8.3-4.33-12.22-6.82-3.85-2.44-7.82-5.18-10.88-8.6-2.56-2.87-3.59-6.32-3.66-10.12-.04-2.37-.09-4.77.03-7.14.13-2.39.62-4.66,1.31-6.95.67-2.22,1.36-4.44,1.66-6.75.3-2.29.11-4.65-.13-6.94-.36-3.46-1.44-6.96-2.86-10.14-.15-.34-.32-.68-.49-1.01,6.29,5.54,9.1,14.22,15.48,19.76,2.06,1.79,4.37,3.32,6.57,4.92,2.36,1.71,4.72,3.42,7.04,5.18,4.68,3.55,9.04,7.36,13.16,11.54,1.63,1.66,3.38,3.2,5.11,4.76.96,1.23,1.94,2.45,2.95,3.65,2.22,2.62,4.59,5.14,6.82,7.77,2.07,3.49,3.8,7.18,5.87,10.68,2.33,3.94,5.3,7.32,9.3,9.63,1.13.65,2.32,1.18,3.47,1.79,1.24.66,2.45,1.36,3.66,2.06,2.41,1.41,4.84,2.81,7.44,3.85,3.91,1.56,8.18,1.84,12.37,1.71-2.59.95-5.48,1.37-8.1,1.77-1.83.28-3.67.51-5.52.57-1.39.05-2.69-.16-4.06-.38-4.23-.66-8.47-1.26-12.58-2.5-4.57-1.38-9.13-2.11-13.89-1.51-2.65.33-5.24.98-7.86,1.44-2.79.49-5.6.81-8.43.91-2.95.11-5.93-.02-8.85-.5-2.6-.43-5.1-1.31-7.73-1.61-2.88-.33-5.41.24-8.11,1.2-2.41.86-4.8,1.79-7.34,2.22-2.87.49-5.94.59-8.84.4-2.88-.19-5.5-1.14-8.27-1.82-5.43-1.33-11.06-.96-16.61-.83-2.58.06-5.16.25-7.67.87-2.03.5-4.13,1.27-6.26,1.09-1.67-.15-4.48-1.6-3.71-3.68.57-1.54,2.39-2.58,3.71-3.38,1.22-.74,2.55-1.35,3.7-2.19.96-.71,1.81-1.62,2.6-2.51,1.6-1.79,4.22-4.75,3.64-7.39-.75-3.37-4.39-1.07-6.13-.06-1.59.92-3,1.78-4.79,2.29-2.63.74-5.35,1.03-7.97,1.8-2.36.7-4.59,1.74-6.55,3.24-2.11,1.63-3.92,3.66-6.4,4.75-2.63,1.15-5.52,1.13-8.33.83-2.83-.3-5.62-.75-8.46-.96-2.96-.22-5.92-.31-8.88-.29-2.65.01-5.33,0-7.94.52-8.6,1.74-16.25,8.68-25.44,6.05-1.56-.45-3.19-.75-4.71-1.32-.7-.26-1,.86-.31,1.11,1.62.6,3.38.97,5.05,1.41,2.16.58,4.41.71,6.63.41,4.2-.55,8.02-2.48,11.86-4.13,2.08-.9,4.21-1.72,6.42-2.25,2.62-.62,5.3-.63,7.99-.66,3.11-.03,6.23.06,9.33.29,2.77.21,5.51.63,8.27.94,2.61.29,5.31.36,7.84-.47,2.51-.82,4.43-2.46,6.39-4.16,2.05-1.79,4.25-3.14,6.85-3.99,2.65-.86,5.4-1.18,8.09-1.86,1.81-.45,3.34-1.19,4.92-2.13.72-.43,1.44-.85,2.19-1.24.54-.28,1.44-.88,2.08-.84,1.42.09.83,2.27.5,3.02-.64,1.47-1.66,2.79-2.71,4-.8.92-1.66,1.88-2.64,2.61-1.19.9-2.61,1.51-3.88,2.3-2.19,1.35-5.61,3.89-3.53,6.76,2.61,3.58,7.22,2.12,10.76,1.22,2.73-.69,5.54-.84,8.35-.88,2.85-.04,5.71-.15,8.56-.13,5.76.05,10.98,2.71,16.71,2.85,2.68.07,5.47-.06,8.11-.53,2.59-.47,5.04-1.45,7.51-2.32,2.99-1.05,5.77-1.39,8.91-.79,2.59.49,5.08,1.26,7.71,1.58,5.63.69,11.37.24,16.93-.8,4.96-.92,9.73-2,14.79-1.14,2.46.42,4.81,1.21,7.21,1.86,2.04.55,4.14.91,6.22,1.26,3.32.56,6.69,1.34,10.08,1.11,3.78-.25,7.6-.89,11.25-1.89,1.38-.37,2.77-.8,4.03-1.48.1-.05.16-.13.21-.21.05,0,.1,0,.15-.01,1.13-.08,2.26-.23,3.4-.22,1.14,0,2.29.14,3.42.32,2.55.39,5.07.95,7.64,1.26,1.46.18,2.93.28,4.41.29.74,0,.74-1.15,0-1.15h0Z"/>
</svg>