<svg id="Tryb_izolacji" data-name="Tryb izolacji" xmlns="http://www.w3.org/2000/svg" viewBox="0 0 61.06 90.42">
  <defs>
    <style>
      .cls-1 {
        fill: #2b2a29;
        fill-rule: evenodd;
        stroke-width: 0px;
      }
    </style>
  </defs>
  <path class="cls-1" d="m47.44,6.1c.41-1.94,3.9-1.76,5.31-1.46,1.43.3,4.38,1.5,3.97,3.42-.41,1.93-3.45,1.72-4.86,1.42-1.38-.29-4.84-1.42-4.43-3.38Zm-16.7,75.67c.21-1.91,1.85-2.76,3.62-2.57,1.77.19,3.19,1.39,2.98,3.3-.18,1.6-1.98,3.87-3.75,3.67-1.77-.2-3.03-2.8-2.85-4.4h0Zm3.63-73.65c-.42-2.1,2.13-2.9,3.7-3.22,1.57-.31,4.32-.58,4.74,1.54.31,1.54-2.07,4.17-3.5,4.56-1.47.4-4.64-1.33-4.95-2.89h0Zm-9.93,3.34c-.54-1.48.92-2.72,2.15-3.17,1.24-.45,3.15-.45,3.69,1.03.54,1.48-.92,2.72-2.15,3.17-1.24.45-3.15.45-3.69-1.03Zm22.4.27c-.04,3.29.07,6.65.11,9.95l-.24,21.06-5.64,37.67c-.02,2.92-2.48,6.46-4.11,8.48-.84,1.05-2.13,1.62-3.47,1.53-1.05-.07-1.97-.51-2.76-1.18-1.32-1.1-2.76-2.77-2.82-4.54v-.29s5.45-43.02,5.45-43.02c.05-8.26.07-16.53.16-24.79-.06-.59-.28-1.79-.57-2.44-.81,0-1.51.02-2.13.06l-.87,2.69-2.57-1.58-.52,2.85s-.08.03-.12.05l-2.46-1.51-.51,2.76c-.07.03-.14.06-.22.09l-2.39-1.47-.5,2.72c-.09.04-.17.07-.25.11l-2.31-1.42h0s-.05-.02-.05-.02l-.5,2.72c-.08.04-.17.07-.25.11l-2.31-1.42-.5,2.71c-.09.04-.18.08-.27.12l-2.35-1.44-.51,2.78c-.06.03-.12.06-.18.09l-2.42-1.48-.53,2.9s-.04.02-.06.03l-2.51-1.54h0s0,0,0,0l-.55,2.96-2.56-1.58-.55,2.96-1.99-1.22c.13-1.91.41-4.82,1.03-5.95.56-1.03,10.51-8.9,22.99-15.72C30.55,2.92,42.87-.8,50.42.15c2.1.26,7.24,1.15,8.94,2.57,1.21,1.01,1.6,2.64,1.7,4.14.13,1.97-1.53,7.37-2.9,8.86l-4.43-3.5-6.88-.5h0Z"/>
</svg>