<svg id="Tryb_izolacji" data-name="Tryb izolacji" xmlns="http://www.w3.org/2000/svg" viewBox="0 0 62.64 92">
  <defs>
    <style>
      .cls-1 {
        fill: #2b2a29;
        stroke-width: 0px;
      }
    </style>
  </defs>
  <path class="cls-1" d="m53.7,4.65l-.33,1.55h0s-.12-.02-.12-.02l-.13-.02-.14-.02-.15-.02-.16-.02-.17-.02h-.18s-.18-.03-.18-.03h-.19s-.19-.01-.19-.01h-.19s-.19,0-.19,0h-.19s-.19.02-.19.02l-.19.02-.18.02-.18.03-.17.03-.16.04-.15.04-.14.05-.13.05-.12.06-.11.06-.1.06-.08.07-.07.07-.06.07-.05.07-.04.07-.03.08-.02.09-1.55-.33.07-.26.1-.25.12-.23.14-.21.16-.19.18-.17.19-.15.2-.13.21-.12.21-.1.22-.09.22-.08.23-.07.23-.06.23-.05.23-.04.23-.03.23-.02.23-.02h.23s.23-.01.23-.01h.23s.22,0,.22,0h.22s.21.02.21.02l.21.02.2.02.19.02.18.03.17.03.16.03.16.03h0s0,0,0,0Zm0,0c.43.09.7.51.61.94s-.51.7-.94.61l.32-1.55h0Zm4.58,4.35l-1.55-.33h0s.02-.1.02-.1v-.09s0-.09,0-.09v-.09s-.04-.09-.04-.09l-.03-.09-.04-.09-.05-.09-.06-.09-.08-.1-.09-.1-.1-.1-.11-.1-.12-.1-.13-.1-.13-.09-.14-.09-.15-.09-.15-.08-.16-.08-.16-.08-.16-.07-.16-.07-.16-.06-.16-.06-.16-.06-.15-.05-.15-.05-.14-.04-.14-.04-.13-.03-.12-.03.33-1.55.16.03.16.04.17.05.18.05.18.06.18.06.19.07.19.07.19.08.19.08.19.09.2.1.19.1.19.11.19.11.19.12.18.13.18.13.17.14.17.15.16.16.15.17.14.18.13.19.12.2.1.21.08.23.06.24.04.24v.25s0,.26,0,.26l-.04.26h0s0,0,0,0Zm0,0c-.09.43-.51.7-.94.61-.43-.09-.7-.51-.61-.94l1.55.33h0Zm-5.79,2.03l.33-1.55h0s.12.02.12.02l.13.02.14.02.15.02.15.02.16.02.16.02h.17s.17.02.17.02h.17s.17,0,.17,0h.17s.17,0,.17,0h.17s.16-.03.16-.03l.16-.02.15-.03.15-.03.14-.04.13-.04.12-.05.11-.05.1-.05.09-.06.08-.06.07-.06.06-.06.05-.07.05-.07.04-.08.03-.09.03-.1,1.55.33-.06.25-.09.24-.11.22-.13.21-.15.19-.16.17-.17.15-.18.14-.19.12-.2.1-.2.09-.21.08-.21.07-.21.05-.21.05-.21.04-.21.03-.21.02-.21.02h-.21s-.21.01-.21.01h-.21s-.21,0-.21,0h-.2s-.2-.03-.2-.03l-.19-.02-.19-.02-.18-.02-.17-.03-.17-.03-.16-.03-.15-.03h0s0,0,0,0Zm0,0c-.43-.09-.7-.51-.61-.94s.51-.7.94-.61l-.32,1.55Zm-5.04-4.31l1.55.33h0v.09s-.02.08-.02.08v.08s.02.08.02.08l.03.08.04.08.05.09.06.09.08.1.09.1.11.1.12.1.13.1.14.1.15.1.16.09.17.09.17.09.18.08.18.08.18.08.18.07.18.07.18.06.18.06.17.06.17.05.16.05.15.04.15.04.13.03.12.03-.33,1.55-.15-.03-.16-.04-.17-.04-.18-.05-.18-.05-.19-.06-.2-.06-.2-.07-.21-.07-.21-.08-.21-.08-.21-.09-.21-.1-.21-.1-.21-.11-.21-.11-.2-.12-.2-.13-.19-.14-.19-.15-.18-.15-.17-.16-.16-.18-.15-.19-.14-.2-.12-.22-.1-.23-.08-.24-.05-.26-.02-.26v-.27s.05-.27.05-.27h0Zm0,0c.09-.43.51-.7.94-.61.43.09.7.51.61.94l-1.55-.33h0Zm-12.21,72.47l-.17,1.57h-.14s-.14-.02-.14-.02h-.13s-.13,0-.13,0h-.13s-.13.02-.13.02l-.12.02-.12.02-.12.03-.11.03-.11.04-.11.04-.1.04-.1.05-.1.05-.09.06-.09.06-.08.06-.08.07-.07.07-.07.08-.07.08-.06.08-.06.09-.05.09-.05.1-.04.1-.04.11-.03.12-.03.12-.02.13-.02.14-1.57-.17.03-.22.04-.21.05-.2.06-.2.07-.19.08-.19.09-.18.1-.17.11-.16.12-.16.12-.15.13-.14.14-.13.14-.12.15-.12.16-.11.16-.1.16-.09.17-.08.17-.07.18-.07.18-.06.18-.05.18-.04.19-.03.19-.03.19-.02h.19s.19-.02.19-.02h.19s.19.01.19.01l.19.02h0Zm0,0c.43.05.75.44.7.87-.05.43-.44.75-.87.7l.17-1.57h0Zm3.68,4.17l-1.57-.17h0s.01-.14.01-.14v-.13s0-.13,0-.13v-.12s-.02-.12-.02-.12l-.02-.11-.03-.11-.03-.1-.04-.1-.04-.1-.05-.09-.05-.09-.06-.09-.06-.08-.07-.08-.07-.08-.08-.07-.08-.07-.09-.07-.09-.07-.1-.06-.1-.06-.1-.06-.11-.05-.11-.05-.12-.04-.12-.04-.12-.04-.13-.03-.13-.03-.13-.02-.14-.02.17-1.57.19.02.19.03.19.04.19.05.18.05.18.06.18.07.17.07.17.08.17.09.16.1.16.1.15.11.15.12.14.12.14.13.13.14.12.14.11.15.11.16.1.17.09.17.08.18.07.18.06.19.05.19.04.2.03.2.02.21v.21s0,.21,0,.21l-.02.22h0s0,0,0,0Zm0,0c-.05.43-.44.75-.87.7-.43-.05-.75-.44-.7-.87l1.57.17h0Zm-4.62,4.37l.17-1.57h0s.1,0,.1,0h.1s.1-.01.1-.01l.11-.02.11-.03.11-.04.11-.05.12-.05.12-.06.12-.07.12-.08.12-.09.12-.1.12-.1.11-.11.11-.12.11-.12.1-.13.1-.13.1-.13.09-.13.09-.14.08-.14.07-.14.07-.14.06-.13.05-.13.05-.13.04-.13.03-.12.02-.11.02-.11,1.57.17-.03.2-.04.2-.05.19-.06.19-.07.19-.08.19-.08.19-.09.19-.1.19-.11.18-.11.18-.12.18-.13.18-.13.17-.14.17-.15.16-.15.16-.16.15-.16.15-.17.14-.18.13-.18.12-.19.11-.19.1-.2.09-.21.08-.21.07-.22.05-.22.04-.23.02h-.23s-.23-.01-.23-.01h0s0,0,0,0Zm0,0c-.43-.05-.75-.44-.7-.87.05-.43.44-.75.87-.7l-.17,1.57h0Zm-3.55-5.27l1.57.17h0s0,.11,0,.11v.12s0,.12,0,.12v.13s.03.14.03.14l.02.14.03.14.04.15.04.15.05.15.05.15.06.15.06.15.07.15.08.14.08.14.08.14.09.13.09.13.09.12.1.11.1.1.1.1.1.09.1.08.1.07.1.06.1.05.1.04.1.03.1.02.1.02-.17,1.57-.23-.04-.22-.05-.22-.07-.21-.09-.2-.1-.19-.11-.18-.12-.17-.13-.17-.14-.16-.15-.15-.16-.14-.17-.14-.17-.13-.18-.12-.18-.11-.19-.11-.19-.1-.19-.09-.2-.09-.2-.08-.2-.07-.2-.06-.2-.06-.2-.05-.2-.04-.2-.03-.2-.02-.2v-.2s-.02-.2-.02-.2v-.2s.02-.2.02-.2h0s0,0,0,0Zm0,0c.05-.43.44-.75.87-.7.43.05.75.44.7.87l-1.57-.17h0ZM38.71,4.91l.31,1.55h0l-.14.03-.15.03-.15.03-.15.04-.15.04-.15.04-.16.05-.15.05-.15.05-.15.06-.15.06-.14.06-.14.07-.13.07-.13.07-.12.07-.11.08-.11.08-.1.08-.09.08-.08.08-.07.08-.06.08-.05.08-.04.08-.03.09-.03.09-.02.09v.1s-.01.11-.01.11v.12s.03.13.03.13l-1.55.31-.04-.26-.02-.25v-.25s.03-.24.03-.24l.05-.23.06-.23.08-.22.1-.2.11-.19.13-.18.14-.17.15-.16.16-.15.16-.14.17-.13.17-.12.18-.11.18-.1.18-.09.19-.09.19-.08.19-.08.19-.07.19-.06.19-.06.18-.05.18-.05.18-.05.17-.04.17-.04.17-.04.16-.03h0Zm0,0c.43-.08.84.19.93.62.08.43-.19.84-.62.93l-.31-1.55Zm5.67,2.16l-1.55.31h0l-.03-.13-.04-.11-.04-.1-.05-.09-.05-.08-.06-.07-.07-.07-.07-.06-.08-.06-.09-.05-.1-.05-.11-.05-.12-.04-.12-.04-.13-.03-.14-.03-.15-.02-.15-.02h-.16s-.16-.02-.16-.02h-.16s-.16,0-.16,0h-.16s-.17.02-.17.02h-.17s-.16.03-.16.03l-.16.02-.16.02-.16.02-.15.03-.15.03-.14.03-.31-1.55.16-.03.17-.03.17-.03.18-.03.18-.03.19-.02.19-.02.2-.02h.2s.2-.02.2-.02h.2s.21,0,.21,0h.21s.21.02.21.02l.21.02.21.03.21.04.21.05.21.06.2.07.2.09.2.1.19.12.18.13.17.15.16.17.15.18.13.2.12.22.1.23.08.24.06.25h0Zm0,0c.08.43-.19.84-.62.93-.43.08-.84-.19-.93-.62l1.55-.31Zm-4.07,5.48l-.41-1.53h0s.08-.03.08-.03l.09-.04.11-.05.12-.06.12-.07.13-.08.13-.09.14-.1.14-.11.14-.12.14-.13.14-.13.14-.14.13-.14.13-.15.13-.15.12-.15.12-.15.11-.15.1-.16.09-.15.08-.15.08-.15.07-.15.06-.14.05-.13.03-.12.02-.11v-.1s.02-.09.02-.09v-.08s-.01-.06-.01-.06l1.55-.31.03.23v.23s0,.23,0,.23l-.03.22-.05.22-.06.22-.07.21-.08.21-.1.21-.1.21-.11.2-.12.2-.13.2-.14.2-.14.19-.15.19-.15.18-.16.18-.16.17-.17.17-.17.16-.17.16-.17.15-.18.14-.18.13-.18.13-.18.12-.18.11-.18.1-.19.09-.19.07-.19.06h0s0,0,0,0Zm0,0c-.42.11-.86-.14-.97-.56-.11-.42.14-.86.56-.97l.41,1.53Zm-5.93-3.5l1.55-.31h0s.02.07.02.07l.03.08.04.09.05.1.07.1.08.11.09.11.11.11.12.12.13.12.14.11.14.11.15.11.16.11.16.1.17.1.17.09.17.09.17.08.17.08.17.07.17.06.17.05.16.05.16.04.15.03.14.02h.13s.12.01.12.01h.1s.09-.02.09-.02l.07-.02.41,1.53-.22.05-.22.03h-.22s-.22,0-.22,0l-.22-.02-.22-.03-.22-.04-.22-.05-.22-.06-.22-.07-.22-.08-.22-.09-.22-.1-.22-.1-.22-.11-.21-.12-.21-.12-.2-.13-.2-.14-.19-.14-.19-.15-.18-.15-.17-.16-.17-.16-.16-.17-.15-.18-.14-.18-.12-.19-.11-.2-.1-.21-.08-.22-.06-.23h0s0,0,0,0Zm0,0c-.08-.43.19-.84.62-.93.43-.08.84.19.93.62l-1.55.31Zm-7.28-.73l.54,1.48h0s-.09.04-.09.04l-.1.04-.1.04-.1.05-.1.05-.1.05-.1.06-.09.06-.09.06-.09.07-.09.07-.08.07-.08.07-.07.07-.07.08-.06.08-.06.08-.05.08-.05.08-.04.08-.04.08-.03.07-.03.07-.02.07v.07s-.02.07-.02.07v.07s0,.07,0,.07v.07s.02.08.02.08l.02.08.03.08-1.48.54-.06-.19-.05-.19-.03-.19-.02-.19v-.19s0-.19,0-.19l.02-.18.04-.18.05-.17.06-.17.07-.16.08-.16.08-.15.09-.15.1-.14.1-.13.11-.13.11-.12.12-.12.12-.11.13-.11.13-.1.13-.1.13-.09.13-.09.14-.08.14-.08.14-.07.14-.07.14-.06.14-.06.14-.05h0s0,0,0,0Zm0,0c.41-.15.86.06,1.01.47.15.41-.06.86-.47,1.01l-.54-1.48h0Zm4.71,1.5l-1.48.54h0s-.03-.08-.03-.08l-.04-.07-.04-.07-.04-.06-.05-.06-.05-.05-.05-.05-.06-.05-.06-.04-.07-.04-.07-.04-.08-.03-.08-.03-.09-.03-.09-.02-.09-.02-.1-.02h-.1s-.1-.02-.1-.02h-.11s-.11,0-.11,0h-.11s-.11.01-.11.01h-.11s-.11.02-.11.02l-.11.02-.11.02-.11.02-.11.03-.1.03-.1.03-.09.03-.54-1.48.14-.05.14-.05.15-.04.15-.04.15-.03.16-.03.16-.02.16-.02.16-.02h.16s.16-.01.16-.01h.16s.17,0,.17,0h.17s.17.03.17.03l.17.03.17.03.16.04.16.05.16.06.16.07.16.08.15.09.15.1.14.11.14.12.13.14.12.15.11.16.1.17.09.18.08.19h0s0,0,0,0Zm0,0c.15.41-.06.86-.47,1.01s-.86-.06-1.01-.47l1.48-.54Zm-2.62,4.19l-.54-1.48h0l.09-.04.1-.04.1-.04.1-.05.1-.05.1-.05.1-.06.09-.06.09-.06.09-.07.09-.07.08-.07.08-.07.08-.07.07-.07.06-.08.06-.08.05-.08.05-.08.04-.07.04-.08.03-.07.03-.07.02-.07v-.07s.02-.07.02-.07v-.07s0-.07,0-.07v-.07s-.02-.08-.02-.08l-.02-.08-.03-.08,1.48-.54.06.19.05.19.03.19.02.19v.19s0,.19,0,.19l-.02.18-.04.18-.05.17-.06.17-.07.16-.08.16-.09.15-.09.15-.1.14-.1.13-.11.13-.11.12-.12.12-.12.11-.13.11-.13.1-.13.1-.13.09-.13.09-.14.08-.14.08-.14.07-.14.07-.14.06-.14.06-.14.05h0Zm0,0c-.41.15-.86-.06-1.01-.47-.15-.41.06-.86.47-1.01l.54,1.48h0Zm-4.71-1.5l1.48-.54h0s.03.08.03.08l.04.07.04.07.04.06.05.06.05.05.05.05.06.04.06.04.07.04.07.04.08.03.08.03.09.03.09.02.1.02.1.02h.1s.11.02.11.02h.11s.11,0,.11,0h.11s.11-.01.11-.01h.11s.11-.02.11-.02l.11-.02.11-.02.11-.02.11-.03.1-.03.1-.03.09-.03.54,1.48-.14.05-.14.05-.15.04-.15.04-.15.03-.16.03-.16.02-.16.02-.16.02h-.16s-.16.02-.16.02h-.16s-.17,0-.17,0h-.17s-.17-.03-.17-.03l-.17-.03-.16-.03-.17-.04-.16-.05-.16-.06-.16-.07-.16-.08-.15-.09-.15-.1-.14-.11-.14-.13-.13-.14-.12-.15-.11-.16-.1-.17-.09-.18-.08-.19h0s0,0,0,0Zm0,0c-.15-.41.06-.86.47-1.01.41-.15.86.06,1.01.47l-1.48.54h0Zm24.04,9.96l-1.58-.02v.02-.31s0-.31,0-.31v-.31s0-.31,0-.31v-.31s0-.31,0-.31v-.31s-.01-.31-.01-.31v-.62s-.02-.62-.02-.62v-.62s-.02-.62-.02-.62v-.31s0-.31,0-.31v-.31s0-.31,0-.31v-.31s0-.31,0-.31v-.31s0-.31,0-.31v-.31s0-.31,0-.31v-.31s0-.31,0-.31v-.31s0-.31,0-.31v-.31s0-.31,0-.31l1.58.02v.31s0,.31,0,.31v.31s0,.31,0,.31v.31s0,.31,0,.31v.31s0,.31,0,.31v.31s0,.31,0,.31v.31s0,.31,0,.31v.31s0,.31,0,.31v.31s0,.31,0,.31v.62s.02.62.02.62v.62s.02.62.02.62v.31s.01.31.01.31v.31s0,.31,0,.31v.31s0,.31,0,.31v.31s0,.31,0,.31v.02h0Zm0-.02c0,.44-.35.79-.78.8-.44,0-.79-.35-.8-.78l1.58-.02h0Zm-1.82,21.06l.24-21.06,1.58.02-.24,21.06v.11s-1.58-.13-1.58-.13h0Zm1.58.02c0,.44-.36.79-.8.78-.44,0-.79-.36-.78-.8l1.58.02h0Zm-7.21,37.54l5.64-37.67,1.56.23-5.64,37.67-1.57-.12v-.11s0,0,0,0Zm1.56.23c-.06.43-.47.73-.9.66-.43-.06-.73-.47-.66-.9l1.56.23Zm-4.27,8.86l-1.23-.99h0s.15-.19.15-.19l.16-.2.16-.21.16-.21.16-.22.17-.23.17-.23.17-.24.17-.24.17-.25.17-.25.16-.26.16-.26.16-.26.15-.27.15-.27.15-.27.14-.27.13-.27.13-.27.12-.27.11-.27.1-.27.09-.27.09-.27.07-.26.06-.26.05-.26.04-.25.03-.25.02-.24v-.24s1.59,0,1.59,0v.32s-.04.32-.04.32l-.04.32-.05.32-.07.32-.08.31-.09.31-.1.31-.11.31-.12.31-.13.31-.13.31-.14.3-.15.3-.15.3-.16.3-.16.29-.17.29-.17.28-.17.28-.17.27-.18.27-.18.26-.18.26-.18.25-.18.25-.18.24-.17.23-.17.22-.17.22-.16.21-.16.2h0s0,0,0,0Zm0,0c-.27.34-.77.39-1.11.12-.34-.27-.39-.77-.12-1.11l1.23.99h0Zm-4.13,1.83l.1-1.58h.1s.1,0,.1,0h.1s.1,0,.1,0h.1s.1-.02.1-.02h.1s.1-.03.1-.03l.1-.02.1-.02.1-.02.09-.03.09-.03.09-.03.09-.04.09-.04.09-.04.09-.04.09-.05.08-.05.08-.05.08-.05.08-.06.08-.06.08-.06.08-.06.07-.07.07-.07.07-.07.07-.07.07-.08.07-.08,1.23.99-.1.11-.1.11-.1.11-.1.11-.11.1-.11.1-.11.09-.12.09-.12.09-.12.08-.12.08-.12.08-.13.07-.13.07-.13.06-.13.06-.13.06-.14.05-.14.05-.14.04-.14.04-.14.04-.14.03-.14.03-.14.02-.15.02-.15.02h-.15s-.15.02-.15.02h-.15s-.15,0-.15,0h-.15s0,0,0,0h0Zm0,0c-.44-.03-.77-.4-.74-.84.03-.44.4-.77.84-.74l-.1,1.58h0Zm-3.22-1.36l1.01-1.21h0s.07.05.07.05l.07.05.07.05.07.05.07.05.07.05.07.05.07.04.07.04.07.04.07.04.07.04.07.04.07.04.07.03.07.03.07.03.07.03.07.03.07.03.07.02.07.02.07.02.07.02.08.02.08.02h.08s.08.03.08.03h.08s.08.02.08.02h.08s.08.01.08.01l-.1,1.58h-.12s-.11-.02-.11-.02h-.12s-.11-.03-.11-.03l-.11-.02-.11-.02-.11-.02-.11-.03-.11-.03-.11-.03-.11-.03-.11-.03-.11-.04-.1-.04-.1-.04-.1-.04-.1-.05-.1-.05-.1-.05-.1-.05-.1-.05-.1-.05-.09-.06-.09-.06-.09-.06-.09-.06-.09-.06-.09-.06-.09-.07-.09-.07-.08-.07-.08-.07h0s0,0,0,0Zm0,0c-.33-.28-.38-.78-.1-1.11.28-.33.78-.38,1.11-.1l-1.01,1.21h0Zm-3.11-5.12l1.58-.06h0s0,.13,0,.13v.13s.03.13.03.13l.03.13.03.13.04.13.04.13.05.13.05.13.06.13.06.13.07.13.07.13.08.13.08.13.09.13.09.13.09.13.1.13.1.13.1.12.11.12.11.12.11.12.11.12.11.11.11.11.12.11.12.11.12.1.12.1.12.1-1.01,1.21-.13-.11-.13-.12-.13-.12-.13-.12-.13-.13-.13-.13-.13-.13-.13-.13-.13-.14-.13-.14-.13-.14-.12-.15-.12-.15-.12-.15-.12-.16-.11-.16-.11-.16-.1-.17-.1-.17-.1-.17-.09-.17-.09-.18-.08-.18-.07-.18-.07-.19-.06-.19-.05-.19-.05-.19-.04-.2-.03-.2-.02-.2v-.2s-.01,0-.01,0h0Zm0,0c-.02-.44.33-.8.76-.82.44-.02.8.33.82.76l-1.58.06Zm1.57-.35v.29s-1.57.06-1.57.06v-.29s0-.13,0-.13l1.57.07h0Zm-1.58.06c-.02-.44.32-.8.76-.82s.8.32.82.76l-1.58.06h0Zm7.03-42.95l-5.46,43.02-1.57-.2,5.46-43.02,1.57.1v.09s0,0,0,0Zm-1.57-.2c.05-.43.45-.74.88-.68s.74.45.68.88l-1.57-.2h0Zm.16-24.61l1.57-.16v.09s0,.77,0,.77v.77s-.02.77-.02.77v.77s-.01.77-.01.77v.77s-.01.77-.01.77v.77s-.01.77-.01.77v.77s-.01.77-.01.77v.77s0,.77,0,.77v.77s0,.77,0,.77v.77s-.01,1.55-.01,1.55v1.55s-.02,1.55-.02,1.55v1.55s-.02,1.55-.02,1.55v1.55s-.01.77-.01.77v.77s0,.77,0,.77v.77s-1.59-.01-1.59-.01v-.77s0-.77,0-.77v-.77s0-.77,0-.77v-1.55s.02-1.55.02-1.55v-1.55s.02-1.55.02-1.55v-1.55s.02-1.55.02-1.55v-.78s0-.78,0-.78v-.77s0-.78,0-.78v-.78s0-.78,0-.78v-.78s.01-.77.01-.77v-.78s.01-.77.01-.77v-.78s.01-.77.01-.77v-.78s.02-.77.02-.77v-.78s.02-.77.02-.77v.09s0,0,0,0Zm0-.09c0-.44.36-.79.8-.78.44,0,.79.36.78.8l-1.58-.02h0Zm.21-1.64v-1.58s.72.46.72.46l.04.08.03.08.03.08.03.08.03.09.03.08.03.09.03.09.03.09.02.09.02.09.02.09.02.09.02.09.02.09.02.09.02.09.02.09.02.09.02.09.02.09.02.09v.08s.03.08.03.08v.08s.03.08.03.08v.08s.02.07.02.07v.07s.02.07.02.07v.07s.01.07.01.07l-1.57.16v-.05s-.01-.05-.01-.05v-.06s-.01-.06-.01-.06v-.06s-.02-.07-.02-.07v-.07s-.02-.07-.02-.07v-.07s-.03-.08-.03-.08v-.08s-.03-.08-.03-.08l-.02-.08-.02-.08-.02-.08-.02-.08-.02-.08-.02-.08-.02-.08-.02-.08-.02-.08-.02-.08-.02-.07-.02-.07-.02-.07-.02-.07-.02-.07-.02-.06-.02-.06-.02-.05-.02-.05-.02-.05.71.46h0Zm-.71-.46c-.18-.4,0-.87.39-1.05.4-.18.87,0,1.05.39l-1.44.66h0Zm-.66-.02l-1.5-.49.7-.55h.12s.12-.02.12-.02h.12s.13-.01.13-.01h.07s.06,0,.06,0h.07s.07,0,.07,0h.07s.07,0,.07,0h.07s.07,0,.07,0h.07s.07,0,.07,0h.07s.07,0,.07,0h.07s.07,0,.07,0h.07s.07,0,.07,0h.07s.07,0,.07,0h.07s.07,0,.07,0h.08s.08,0,.08,0h.08s.08,0,.08,0v1.58s-.08,0-.08,0h-.07s-.07,0-.07,0h-.07s-.07,0-.07,0h-.07s-.07,0-.07,0h-.07s-.07,0-.07,0h-.07s-.07,0-.07,0h-.07s-.07,0-.07,0h-.06s-.07,0-.07,0h-.06s-.06,0-.06,0h-.06s-.06,0-.06,0h-.06s-.06,0-.06,0h-.06s-.06,0-.06,0h-.06s-.12,0-.12,0h-.12s-.11.01-.11.01h-.11s.7-.54.7-.54h0Zm-.7.55c-.44.03-.81-.3-.84-.73-.03-.44.3-.81.73-.84l.11,1.58h0Zm-1.68,1.65l.87-2.69,1.5.49-.87,2.69-1.17.43-.34-.92Zm1.5.49c-.13.42-.58.64-1,.51-.42-.13-.64-.58-.51-1l1.5.49h0Zm-2.91-2.49l2.57,1.58-.83,1.35-2.57-1.58-.36-.82,1.19-.53h0Zm-.83,1.35c-.37-.23-.49-.72-.26-1.09.23-.37.72-.49,1.09-.26l-.83,1.35h0Zm-.89,2.03l.52-2.85,1.55.29-.52,2.85-.45.58-1.11-.86h0Zm1.55.29c-.08.43-.49.71-.92.63s-.71-.49-.63-.92l1.55.29h0Zm-1.31.58l.83-1.35-.71-.06h.02s.02-.02.02-.02h.02s0,0,0,0h.01s0,0,0,0h0s0,0,0,0l.66,1.44h-.03s-.03.02-.03.02h-.02s-.02.02-.02.02h-.02s-.01.01-.01.01h0s-.01,0-.01,0l-.71-.06h0Zm.71.06c-.4.17-.87-.03-1.03-.43-.17-.4.03-.87.43-1.03l.6,1.46Zm-2.35-2.92l2.46,1.51-.83,1.35-2.46-1.51-.36-.82,1.19-.53h0Zm-.83,1.35c-.37-.23-.49-.72-.26-1.09.23-.37.72-.49,1.09-.26l-.83,1.35h0Zm-.87,1.94l.51-2.76,1.55.29-.51,2.76-.45.57-1.11-.86h0Zm1.55.29c-.08.43-.49.71-.92.63s-.71-.49-.63-.92l1.55.29h0Zm-1.41.62l.83-1.35-.71-.06h.01s.01-.01.01-.01h0s.01,0,.01,0h.01s.01-.01.01-.01h.01s0,0,0,0h.01s.01-.01.01-.01h0s.01,0,.01,0h.02s0-.01,0-.01h0s.02-.01.02-.01l.66,1.44h-.01s-.02.01-.02.01h-.02s-.01.01-.01.01h-.01s-.02.01-.02.01h-.01s-.01.01-.01.01h-.02s-.02.02-.02.02h-.01s-.01.01-.01.01h-.02s-.02.02-.02.02h-.02s-.01.01-.01.01l-.71-.06h0Zm.71.06c-.4.16-.87-.03-1.03-.44s.03-.87.44-1.03l.59,1.47h0Zm-2.27-2.88l2.39,1.47-.83,1.35-2.39-1.47-.36-.82,1.19-.53h0Zm-.83,1.35c-.37-.23-.49-.72-.26-1.09.23-.37.72-.49,1.09-.26l-.83,1.35Zm-.86,1.9l.5-2.72,1.55.28-.5,2.72-.48.59-1.08-.87h0Zm1.55.28c-.08.43-.49.71-.92.64s-.71-.49-.64-.92l1.55.28h0Zm-1.44.64l.83-1.35-.73-.05h.02s.02-.01.02-.01h0s.02,0,.02,0h.02s.02-.01.02-.01h.02s.02-.01.02-.01h.02s.02-.01.02-.01h.02s.02-.01.02-.01h.02s.03-.02.03-.02h.02s.02-.01.02-.01l.6,1.46h-.02s-.01.01-.01.01h0s-.01,0-.01,0h-.02s-.01.01-.01.01h-.01s-.02.01-.02.01h-.02s-.01.01-.01.01h-.02s-.02.01-.02.01h-.02s-.02.02-.02.02h-.02s-.02.01-.02.01l-.73-.05h0Zm.73.05c-.4.17-.87,0-1.04-.41s0-.87.41-1.04l.63,1.45h0Zm-2.22-2.82l2.31,1.42-.83,1.35-2.31-1.42-.36-.86,1.18-.49h0Zm-.83,1.35c-.37-.23-.49-.72-.26-1.09.23-.37.72-.49,1.09-.26l-.83,1.35h0Zm-.36-.85h0s1.54.35,1.54.35h0s-1.17.51-1.17.51l-.36-.86h0Zm1.54.36c-.1.42-.53.69-.95.59-.42-.1-.69-.53-.59-.95l1.54.36Zm-.41-.89l.05.03-.81,1.36-.05-.03-.37-.82,1.18-.54Zm-.81,1.36c-.37-.22-.5-.71-.27-1.08s.71-.5,1.08-.27l-.81,1.36h0Zm-.87,1.89l.5-2.72,1.55.29-.5,2.72-.46.58-1.09-.87h0Zm1.55.29c-.08.43-.49.71-.92.63-.43-.08-.71-.49-.63-.92l1.55.29Zm-1.44.64l.83-1.35-.74-.05h.02s.02-.01.02-.01h.02s.02-.02.02-.02h.02s.02-.01.02-.01h.02s.02-.02.02-.02h.02s0,0,0,0h.02s.02-.02.02-.02h0s.02-.01.02-.01h.02s.01-.01.01-.01l.63,1.45h-.02s-.02.01-.02.01h0s-.02.01-.02.01h-.01s0,0,0,0h-.02s-.02.02-.02.02h0s-.02.01-.02.01h-.02s-.02.01-.02.01h-.02s0,.01,0,.01h-.02s-.02.01-.02.01l-.74-.05h0Zm.74.05c-.4.18-.87,0-1.05-.4-.18-.4,0-.87.4-1.05l.65,1.44h0Zm-2.22-2.82l2.31,1.42-.83,1.35-2.31-1.42-.36-.82,1.19-.53h0Zm-.83,1.35c-.37-.23-.49-.72-.26-1.09.23-.37.72-.49,1.09-.26l-.83,1.35h0Zm-.86,1.89l.5-2.71,1.55.29-.5,2.71-.43.57-1.12-.86h0Zm1.55.29c-.08.43-.49.71-.92.63s-.71-.49-.63-.92l1.55.29h0Zm-1.46.65l.83-1.35-.74-.05h.02s.02-.02.02-.02h.01s.02-.02.02-.02h.02s.02-.02.02-.02h.02s.01-.01.01-.01h.02s.02-.02.02-.02h.02s.02-.02.02-.02h.01s.01-.01.01-.01h.02s.01-.01.01-.01l.69,1.42h-.02s-.02.02-.02.02h-.02s-.02.02-.02.02h-.02s-.02.02-.02.02h-.02s-.02.02-.02.02h-.02s-.02.02-.02.02h-.02s-.02.02-.02.02h-.01s-.02.02-.02.02h-.02s-.01.01-.01.01l-.74-.05h0Zm.74.05c-.4.18-.87,0-1.05-.39-.18-.4,0-.87.39-1.05l.65,1.44h0Zm-2.26-2.84l2.35,1.44-.83,1.35-2.35-1.44-.36-.82,1.19-.53h0Zm-.83,1.35c-.37-.23-.49-.72-.26-1.09.23-.37.72-.49,1.09-.26l-.83,1.35Zm-.88,1.96l.51-2.78,1.55.29-.51,2.78-.41.56-1.14-.85h0Zm1.55.29c-.08.43-.49.71-.92.63s-.71-.49-.63-.92l1.55.29Zm-1.37.62l.83-1.35-.76-.04h.02s.03-.02.03-.02h.02s.02-.02.02-.02h.02s.02-.02.02-.02h.02s.02-.02.02-.02l.73,1.4h-.03s-.03.03-.03.03h-.03s-.02.02-.02.02h-.03s-.02.02-.02.02h-.02s-.02.02-.02.02l-.76-.04h0Zm.76.04c-.39.19-.87.02-1.05-.37-.19-.39-.02-.87.37-1.05l.69,1.42h0Zm-2.35-2.87l2.42,1.48-.83,1.35-2.42-1.48-.36-.82,1.19-.53h0Zm-.83,1.35c-.37-.23-.49-.72-.26-1.09.23-.37.72-.49,1.09-.26l-.83,1.35h0Zm-.9,2.08l.53-2.9,1.55.29-.53,2.9-.41.55-1.15-.84Zm1.55.29c-.08.43-.49.71-.92.63-.43-.08-.71-.49-.63-.92l1.55.29h0Zm-1.25.56l.83-1.35-.74-.05h0s0,0,0,0h0s0,0,0,0h0s0,0,0,0h0s.01,0,.01,0l.74,1.4h0s-.01,0-.01,0h-.01s-.01.01-.01.01h0s-.02.02-.02.02h-.02s-.02.02-.02.02l-.74-.05h0Zm.74.05c-.4.18-.87,0-1.04-.4-.18-.4,0-.87.4-1.04l.65,1.44h0Zm-2.42-2.94l2.51,1.54-.83,1.35-2.51-1.54-.38-.67,1.2-.67h0Zm-.83,1.35c-.37-.23-.49-.72-.26-1.09.23-.37.72-.49,1.09-.26l-.83,1.35h0Zm-.38-.67h0s1.58,0,1.58,0h0s-1.16.71-1.16.71l-.43-.7h0Zm1.58,0c0,.44-.35.79-.79.79s-.79-.35-.79-.79h1.58Zm-.43-.71h0s-.73,1.41-.73,1.41h0s-.41-.85-.41-.85l1.14-.56h0Zm-.73,1.4c-.39-.2-.54-.68-.34-1.07.2-.39.68-.54,1.07-.34l-.73,1.4Zm-.96,2.11l.55-2.96,1.55.29-.55,2.96-1.19.53-.36-.82Zm1.55.29c-.08.43-.49.71-.92.63s-.71-.49-.63-.92l1.55.29Zm-2.93-2.39l2.56,1.58-.83,1.35-2.56-1.58-.36-.82,1.19-.53Zm-.83,1.35c-.37-.23-.49-.72-.26-1.09.23-.37.72-.49,1.09-.26l-.83,1.35h0Zm-.91,2.15l.55-2.96,1.55.29-.55,2.96-1.19.53-.36-.82h0Zm1.55.29c-.08.43-.49.71-.92.63s-.71-.49-.63-.92l1.55.29Zm-2.35-2.04l1.99,1.22-.83,1.35-1.99-1.22L0,28.91l1.2-.62Zm-.83,1.35c-.37-.23-.49-.72-.26-1.09.23-.37.72-.49,1.09-.26l-.83,1.35H.38Zm.75-7l1.39.76h0s-.04.07-.04.07l-.04.09-.04.1-.04.12-.04.13-.04.14-.04.15-.04.16-.04.16-.04.17-.04.18-.04.18-.03.19-.03.19-.03.2-.03.2-.03.2-.03.2-.03.21-.03.21-.02.21-.02.21-.02.21-.02.21-.02.2-.02.2-.02.2-.02.2-.02.19v.19s-.03.18-.03.18v.18S0,28.91,0,28.91v-.18s.03-.19.03-.19v-.2s.03-.2.03-.2l.02-.2.02-.21.02-.21.02-.21.02-.21.02-.22.02-.22.03-.22.03-.22.03-.22.03-.22.03-.22.03-.21.03-.21.04-.21.04-.21.04-.2.04-.2.04-.19.05-.19.05-.18.05-.18.05-.17.06-.17.06-.16.06-.16.07-.15.07-.15h0s0,0,0,0Zm0,0c.21-.38.69-.53,1.07-.32s.53.69.32,1.07l-1.39-.75h0ZM24.42,6.6l.76,1.39h0l-1.16.64-1.14.64-1.12.65-1.1.65-1.08.65-1.06.65-1.04.65-1.02.64-.99.64-.97.63-.94.62-.91.61-.88.6-.85.59-.82.57-.78.56-.75.54-.71.52-.68.5-.64.48-.6.46-.56.43-.51.41-.47.38-.42.35-.38.32-.33.29-.28.25-.22.21-.16.17-.09.11h0s-1.39-.75-1.39-.75l.15-.23.17-.2.21-.22.25-.24.3-.27.35-.3.39-.33.44-.36.48-.39.52-.42.57-.44.61-.47.65-.49.69-.51.72-.53.76-.55.79-.56.83-.58.86-.59.89-.61.92-.62.95-.63.98-.64,1-.64,1.03-.65,1.05-.65,1.07-.65,1.1-.66,1.12-.66,1.13-.65,1.15-.65,1.17-.65h0Zm0,0c.38-.21.86-.07,1.07.31s.07.86-.31,1.07l-.76-1.39h0ZM51.31.15l-.2,1.57h0l-.69-.07-.72-.05-.75-.02h-.77s-.79.03-.79.03l-.81.05-.83.07-.85.09-.86.11-.87.13-.88.15-.89.16-.89.18-.9.2-.9.21-.9.23-.89.24-.89.25-.88.26-.88.27-.86.28-.85.29-.84.3-.82.31-.8.31-.78.32-.76.32-.73.33-.71.33-.68.33-.65.33-.62.33-.76-1.39.65-.34.68-.34.7-.34.73-.34.76-.34.78-.33.8-.33.82-.32.84-.31.86-.31.87-.3.89-.29.9-.28.9-.27.91-.26.92-.25.92-.23.92-.22.92-.2.92-.19.91-.17.91-.15.9-.13.89-.11.88-.09.87-.07.85-.05.84-.03h.82s.8.02.8.02l.78.05.75.08h0Zm0,0c.43.05.74.45.69.88-.05.43-.45.74-.88.69l.2-1.57Zm9.35,2.75l-1.01,1.21h0l-.13-.1-.15-.1-.17-.1-.19-.11-.21-.11-.23-.11-.25-.1-.26-.1-.27-.1-.28-.1-.29-.09-.3-.09-.31-.09-.31-.09-.32-.08-.32-.08-.32-.08-.32-.07-.32-.07-.32-.07-.32-.06-.31-.06-.31-.06-.3-.05-.29-.05-.28-.05-.27-.04-.26-.04-.25-.04-.23-.03-.22-.03-.2-.03.2-1.57.21.03.23.03.24.03.26.04.27.04.28.05.29.05.3.05.31.06.32.06.32.06.33.07.33.07.34.07.34.08.34.08.34.08.34.09.33.09.33.1.32.1.32.1.31.11.3.11.29.12.28.12.27.13.26.13.25.14.24.14.23.15.21.16h0Zm0,0c.33.28.38.78.1,1.11s-.78.38-1.11.1l1.01-1.21Zm1.98,4.7l-1.58.1h0s0-.13,0-.13v-.13s-.02-.13-.02-.13v-.13s-.03-.13-.03-.13l-.02-.13-.02-.13-.02-.13-.02-.13-.03-.13-.03-.13-.03-.12-.03-.12-.04-.12-.04-.12-.04-.12-.04-.12-.05-.11-.05-.11-.05-.11-.05-.11-.06-.1-.06-.1-.06-.1-.06-.1-.07-.09-.07-.09-.07-.09-.08-.08-.08-.08-.08-.08-.09-.08,1.01-1.21.13.12.13.12.12.12.12.13.11.13.11.13.1.14.1.14.09.14.09.15.08.15.07.15.07.15.07.15.06.15.06.15.05.15.05.15.05.15.04.16.04.16.04.16.03.16.03.16.03.16.02.16.02.15.02.15.02.15v.15s.03.15.03.15v.15s.01,0,.01,0h0Zm0,0c.03.44-.3.81-.74.84-.44.03-.81-.3-.84-.74l1.58-.1h0Zm-4.18,9.53l.98-1.24-1.07.08.09-.11.1-.14.11-.16.12-.19.12-.21.12-.23.12-.24.12-.26.12-.27.12-.28.12-.29.12-.3.12-.31.11-.32.11-.32.11-.32.1-.32.1-.33.09-.32.09-.32.08-.32.07-.31.07-.3.06-.29.05-.28.05-.27.04-.26.03-.24.02-.22v-.2s.01-.18.01-.18v-.15s1.57-.1,1.57-.1v.24s0,.25,0,.25v.26s-.04.27-.04.27l-.03.28-.04.29-.05.3-.06.31-.07.32-.07.33-.08.33-.09.34-.09.34-.1.34-.1.34-.11.35-.11.34-.12.34-.12.34-.12.33-.13.33-.13.32-.13.31-.14.3-.14.29-.14.28-.14.26-.15.25-.15.24-.15.22-.16.21-.16.19-1.07.08h0Zm1.07-.08c-.3.32-.8.34-1.12.04s-.34-.8-.04-1.12l1.16,1.07h0Zm-4.52-4.66l4.43,3.5-.98,1.24-4.43-3.5.55-1.41.43.17h0Zm-.98,1.24c-.34-.27-.4-.77-.13-1.11.27-.34.77-.4,1.11-.13l-.98,1.24h0Zm-6.33-1.91l6.88.5-.11,1.58-6.88-.5-.73-.8.85-.78h0Zm-.11,1.58c-.44-.03-.76-.41-.73-.85.03-.44.41-.76.85-.73l-.11,1.58h0Z"/>
</svg>